<?xml version="1.0" encoding="UTF-8"?>
<svg width="24px" height="22px" viewBox="0 0 24 22" version="1.1" xmlns="http://www.w3.org/2000/svg" xmlns:xlink="http://www.w3.org/1999/xlink">
    <title>noun-house-on-hand-1325730</title>
    <g id="Page-1" stroke="none" stroke-width="1" fill="none" fill-rule="evenodd">
        <g id="Artboard" transform="translate(-2103.000000, -1677.000000)" fill-rule="nonzero">
            <g id="noun-reception-4682728" transform="translate(2063.500000, 1529.000000)">
                <g id="Group" transform="translate(39.518825, 148.000000)">
                    <path d="M0.0981747908,17.24075 C-0.00582520916,17.43075 -0.0278252092,17.65775 0.0351747908,17.85775 C0.815174791,20.44075 4.56117479,21.35475 4.99617479,21.45375 C5.02117479,21.45875 5.13717479,21.47275 5.16317479,21.47275 C5.36217479,21.47275 5.55517479,21.39875 5.70517479,21.26375 C7.06717479,20.02975 8.63017479,19.87375 9.98317479,19.82475 L10.1901748,19.82375 C10.6131748,19.82375 12.8301748,19.83675 14.9601748,20.09175 C14.9661748,20.09175 15.0551748,20.09475 15.0611748,20.09475 C15.7551748,20.09475 16.2801748,19.76575 16.3021748,19.75075 C19.4801748,17.71875 22.2511748,16.53475 22.5481748,16.40875 C23.8191748,15.93175 23.9801748,15.19775 23.9621748,14.80275 C23.9401748,14.29875 23.7101748,13.86775 23.4601748,13.68175 C22.9971748,13.19575 22.1831748,13.14175 21.8491748,13.14175 C21.6631748,13.14175 21.4821748,13.15575 21.3161748,13.18175 C21.0261748,13.22475 18.1641748,14.04175 16.9731748,14.38375 C16.4511748,13.90375 15.9181748,13.88475 15.4011748,13.86575 C15.2761748,13.86075 15.1451748,13.85575 15.0051748,13.84475 L14.1481748,13.77675 C13.5381748,13.72975 12.9481748,13.68475 12.4951748,13.62875 C11.7651748,13.53575 11.1591748,13.37575 10.6741748,13.24775 C10.3211748,13.15375 10.0161748,13.07275 9.68417479,13.04075 C9.55317479,13.02575 9.37017479,13.00575 9.15017479,13.00575 C8.40317479,13.00575 7.73917479,13.24175 7.17617479,13.70775 C4.93117479,15.56575 0.763174791,16.80075 0.585174791,16.85375 C0.377174791,16.91075 0.206174791,17.04775 0.0981747908,17.24075 Z M7.68317479,14.32275 C8.10517479,13.97375 8.58317479,13.80375 9.14717479,13.80375 C9.32917479,13.80375 9.48117479,13.82175 9.59717479,13.83475 C9.87117479,13.86075 10.1341748,13.93075 10.4671748,14.01975 C10.9761748,14.15475 11.6101748,14.32175 12.3921748,14.41975 C12.8571748,14.47875 13.4601748,14.52475 14.1251748,14.57575 L14.9391748,14.63975 C15.0901748,14.65275 15.2341748,14.65775 15.3711748,14.66175 C15.8511748,14.67975 16.1381748,14.70575 16.4471748,14.99775 C16.4741748,15.11675 16.5151748,15.40175 16.3571748,15.62275 C16.1741748,15.87875 15.7481748,16.01475 15.1401748,16.01575 L14.8561748,15.99875 C13.0571748,15.89475 12.2011748,15.87575 11.8971748,15.93875 C11.6811748,15.98475 11.5431748,16.19675 11.5881748,16.41375 C11.6341748,16.62975 11.8421748,16.76975 12.0631748,16.72275 C12.2751748,16.67775 13.2011748,16.70275 14.8091748,16.79775 L15.1221748,16.81575 C16.0311748,16.81575 16.6661748,16.56975 17.0101748,16.08675 C17.2411748,15.76175 17.2821748,15.40375 17.2671748,15.12875 C19.6261748,14.45375 21.2541748,13.99975 21.4361748,13.96975 C21.9981748,13.88175 22.6801748,14.00175 22.8911748,14.24175 C22.9161748,14.26975 22.9451748,14.29475 22.9761748,14.31475 C23.0131748,14.35275 23.1481748,14.51275 23.1631748,14.83475 C23.1771748,15.13875 22.8501748,15.43875 22.2461748,15.66575 C21.9341748,15.79675 19.1041748,17.00575 15.8721748,19.07275 C15.8681748,19.07475 15.5071748,19.29075 15.0261748,19.29175 C12.8801748,19.03375 10.6221748,19.02075 10.1901748,19.02075 L9.95917479,19.02275 C8.46017479,19.07675 6.73017479,19.25275 5.16917479,20.66675 C5.16617479,20.66975 5.16317479,20.66975 5.16317479,20.66975 L5.16117479,20.67075 C5.01117479,20.63775 1.46017479,19.81375 0.807174791,17.61875 C0.991174791,17.56575 5.31317479,16.28475 7.68317479,14.32275 Z" id="Shape" fill="#009FDF"></path>
                    <path d="M14.4991748,5.79075 L16.4061748,5.79075 C16.7621748,5.79075 17.0531748,5.49975 17.0531748,5.14275 L17.0531748,3.25875 C17.0531748,2.90275 16.7621748,2.61175 16.4061748,2.61175 L14.4991748,2.61175 C14.1431748,2.61175 13.8521748,2.90275 13.8521748,3.25875 L13.8521748,5.14375 C13.8521748,5.49975 14.1431748,5.79075 14.4991748,5.79075 Z M14.6531748,3.41175 L16.2541748,3.41175 L16.2541748,4.98975 L14.6531748,4.98975 L14.6531748,3.41175 Z" id="Shape" fill="#D0021B"></path>
                    <path d="M9.80717479,6.93275 L10.4831748,6.93275 L10.4831748,11.92875 C10.4831748,12.28475 10.7741748,12.57575 11.1301748,12.57575 L13.8101748,12.57575 C14.1661748,12.57575 14.4571748,12.28475 14.4571748,11.92875 L14.4571748,9.80975 L16.4641748,9.80975 L16.4641748,11.92875 C16.4641748,12.28475 16.7551748,12.57575 17.1111748,12.57575 L19.7751748,12.57575 C20.1311748,12.57575 20.4221748,12.28475 20.4221748,11.92875 L20.4221748,6.93275 L21.0981748,6.93275 C21.3611748,6.93275 21.5961748,6.77575 21.6941748,6.53675 C21.7981748,6.29475 21.7431748,6.01575 21.5561748,5.82875 L19.8441748,4.11675 L19.8441748,1.53075 C19.8441748,1.17475 19.5531748,0.88375 19.1971748,0.88375 L17.6751748,0.88375 C17.3881748,0.88375 17.1441748,1.07175 17.0591748,1.33175 L15.9091748,0.18175 C15.6651748,-0.06025 15.2431748,-0.06125 14.9951748,0.18275 L9.34917479,5.82875 C9.16317479,6.01575 9.10917479,6.29175 9.20817479,6.53275 C9.30817479,6.77575 9.54317479,6.93275 9.80717479,6.93275 Z M19.6221748,11.77575 L17.2651748,11.77575 L17.2651748,9.40975 C17.2651748,9.18875 17.0851748,9.00975 16.8651748,9.00975 L14.0571748,9.00975 C13.8361748,9.00975 13.6571748,9.18975 13.6571748,9.40975 L13.6571748,11.77575 L11.2841748,11.77575 L11.2841748,6.93275 L19.6231748,6.93275 L19.6231748,11.77575 L19.6221748,11.77575 Z M19.0441748,1.68375 L19.0441748,3.31575 L17.8281748,2.09975 L17.8281748,1.68375 L19.0441748,1.68375 Z M15.4521748,0.85575 L17.1441748,2.54875 L19.1611748,4.56575 L20.7281748,6.13175 L10.1771748,6.13175 L15.4521748,0.85575 Z" id="Shape" fill="#D0021B"></path>
                </g>
            </g>
        </g>
    </g>
</svg>