<?xml version="1.0" encoding="UTF-8"?>
<svg width="126px" height="136px" viewBox="0 0 126 136" version="1.1" xmlns="http://www.w3.org/2000/svg" xmlns:xlink="http://www.w3.org/1999/xlink">
    <title>Group 2</title>
    <g id="Page-1" stroke="none" stroke-width="1" fill="none" fill-rule="evenodd">
        <g id="Artboard" transform="translate(-2257.000000, -1715.000000)">
            <g id="Group-2" transform="translate(2257.000000, 1715.000000)">
                <g id="Group" transform="translate(0.000000, 82.571429)" fill="#009FDF">
                    <path d="M126,38.8571429 L126,34 C126,15.2222857 110.812154,0 92.0769231,0 C74.3157692,0 51.6842308,0 33.9230769,0 C15.1878462,0 0,15.2222857 0,34 C0,35.7 0,37.3368571 0,38.8571429 C0,42.7234286 1.53138462,46.4294286 4.25976923,49.1591429 C6.98330769,51.8937143 10.6809231,53.4285714 14.5384615,53.4285714 C36.4430769,53.4285714 89.5569231,53.4285714 111.461538,53.4285714 C115.319077,53.4285714 119.016692,51.8937143 121.740231,49.1591429 C124.468615,46.4294286 126,42.7234286 126,38.8571429 Z M116.307692,34 L116.307692,38.8571429 C116.307692,40.1442857 115.798846,41.3828571 114.887769,42.2911429 C113.981538,43.2042857 112.745769,43.7142857 111.461538,43.7142857 L14.5384615,43.7142857 C13.2542308,43.7142857 12.0184615,43.2042857 11.1122308,42.2911429 C10.2011538,41.3828571 9.69230769,40.1442857 9.69230769,38.8571429 L9.69230769,34 C9.69230769,20.5894286 20.5428462,9.71428571 33.9230769,9.71428571 C51.6842308,9.71428571 74.3157692,9.71428571 92.0769231,9.71428571 C105.457154,9.71428571 116.307692,20.5894286 116.307692,34 Z" id="Shape"></path>
                </g>
                <g id="Group" transform="translate(26.653846, 0.000000)" fill="#D0021B">
                    <path d="M36.3461538,0 C16.2879231,0 0,16.3248571 0,36.4285714 C0,56.5322857 16.2879231,72.8571429 36.3461538,72.8571429 C56.4043846,72.8571429 72.6923077,56.5322857 72.6923077,36.4285714 C72.6923077,16.3248571 56.4043846,0 36.3461538,0 Z M36.3461538,9.71428571 C51.0590769,9.71428571 63,21.6822857 63,36.4285714 C63,51.1748571 51.0590769,63.1428571 36.3461538,63.1428571 C21.6332308,63.1428571 9.69230769,51.1748571 9.69230769,36.4285714 C9.69230769,21.6822857 21.6332308,9.71428571 36.3461538,9.71428571 Z" id="Shape"></path>
                </g>
            </g>
        </g>
    </g>
</svg>