<?xml version="1.0" encoding="UTF-8"?>
<svg width="58px" height="46px" viewBox="0 0 58 46" version="1.1" xmlns="http://www.w3.org/2000/svg" xmlns:xlink="http://www.w3.org/1999/xlink">
    <title>noun-home-1047824</title>
    <g id="Page-1" stroke="none" stroke-width="1" fill="none" fill-rule="evenodd">
        <g id="Artboard" transform="translate(-1926.000000, -1628.000000)" fill="#009FDF" fill-rule="nonzero">
            <g id="noun-home-1047824" transform="translate(1926.000000, 1627.999603)">
                <path d="M28.9399305,0.000397350582 C28.5309287,0.0179837835 28.1380965,0.164868684 27.8186339,0.420099181 L0.907515298,21.5032332 C0.281082781,21.8915219 -0.067303473,22.6029576 0.0108591886,23.3342846 C0.0890218502,24.0656116 0.579949686,24.6878627 1.27438046,24.935798 C1.96881124,25.1837333 2.74428426,25.0136302 3.27024744,24.4979965 L29,4.33325662 L46.9407458,18.3886793 L46.9407458,42.1671003 L38.1505813,42.1671003 L38.1505813,35.0794937 C38.1505813,30.0605572 34.033282,25.955448 29,25.955448 C23.966718,25.955448 19.8494187,30.0605572 19.8494187,35.0794937 L19.8494187,42.1671003 L11.0592542,42.1671003 L11.0592542,26.1950291 C11.0690581,25.5038168 10.7048439,24.8608857 10.1060762,24.5124268 C9.50730848,24.163968 8.76675449,24.163968 8.1679868,24.5124268 C7.56921912,24.8608857 7.20500483,25.5038168 7.21480873,26.1950291 L7.21480873,44.0837488 C7.21491487,45.1422407 8.07546114,46.0003974 9.13703149,46.0003974 L21.7716415,46.0003974 C22.8332118,46.0003974 23.6937581,45.1422407 23.6938643,44.0837488 L23.6938643,35.0794937 C23.6938643,32.1176309 26.0303113,29.7887451 29,29.7887451 C31.9696887,29.7887451 34.3061357,32.1176309 34.3061357,35.0794937 L34.3061357,44.0837488 C34.3062419,45.1422407 35.1667882,46.0003974 36.2283585,46.0003974 L48.8629685,46.0003974 C49.9245389,46.0003974 50.7850851,45.1422407 50.7851913,44.0837488 L50.7851913,21.4034077 L54.7297526,24.4979965 C55.2557157,25.0136302 56.0311888,25.1837333 56.7256195,24.935798 C57.4200503,24.6878627 57.9109781,24.0656116 57.9891408,23.3342846 C58.0673035,22.6029576 57.7189172,21.8915219 57.0924847,21.5032332 L50.7851913,16.5718562 L50.7851913,3.19524655 C50.7850851,2.13675463 49.9245389,1.27870384 48.8629685,1.27859801 L39.8925956,1.27859801 C39.8258971,1.27512984 39.7590626,1.27512984 39.6923641,1.27859801 C38.7096731,1.38129808 37.9650886,2.21005186 37.9703729,3.19524655 L37.9703729,6.52941641 L30.1813661,0.420099181 C29.8295878,0.139655024 29.3902227,-0.00873064779 28.9399305,0.000397350582 Z M41,5.00039735 L46,5.00039735 L46,13.0003974 L41,9.19897891 L41,5.00039735 Z" id="Shape"></path>
            </g>
        </g>
    </g>
</svg>