<?xml version="1.0" encoding="UTF-8"?>
<svg width="68px" height="91px" viewBox="0 0 68 91" version="1.1" xmlns="http://www.w3.org/2000/svg" xmlns:xlink="http://www.w3.org/1999/xlink">
    <title>noun-hotel-5502398</title>
    <g id="Page-1" stroke="none" stroke-width="1" fill="none" fill-rule="evenodd">
        <g id="Artboard" transform="translate(-1826.000000, -1605.000000)" fill="#009FDF">
            <g id="noun-hotel-5502398" transform="translate(1826.000000, 1605.000000)">
                <path d="M33.985412,0 C33.4262398,0 33.185953,0.199704953 33.0186505,0.310652149 C32.851348,0.421599345 32.7525385,0.521451821 32.6615888,0.621304298 C32.4796894,0.809914531 32.3370893,0.987430045 32.188875,1.19822972 C31.8913236,1.60873434 31.5825438,2.09690201 31.2760096,2.57841284 C30.9705984,3.0665805 30.6708013,3.55474816 30.4394971,3.9131076 C30.372127,4.0240548 30.3227222,4.09062312 30.2677033,4.16828616 C30.1666481,4.16828616 30.0925409,4.16828616 29.9600463,4.27923335 C29.5344916,4.39018055 28.9640911,4.50112774 28.3912204,4.63426438 C27.8185742,4.76740101 27.2464895,4.90053765 26.7532278,5.044769 C26.506204,5.1557162 26.2838825,5.18900036 26.0413501,5.29994755 C25.9200838,5.29994755 25.7943262,5.41089475 25.6281466,5.53293667 C25.4619669,5.65497858 25.1936092,5.81030466 25.0184468,6.33175648 C24.8432845,6.8532083 24.962305,7.14167101 25.0221522,7.33028124 C25.0895223,7.51889148 25.1501554,7.64093339 25.2152799,7.75188059 C25.344406,7.97377498 25.4802691,8.16238521 25.6352204,8.36209017 C25.9440002,8.76150007 26.3235186,9.20528886 26.7064056,9.63243556 C27.0892925,10.0651296 27.4721795,10.486729 27.755134,10.8140232 C27.8449609,10.9249704 27.8932428,10.980444 27.9561216,11.0470123 C27.9508443,11.1579595 27.9498337,11.2245278 27.9448933,11.3576645 C27.9112082,11.7792638 27.8550664,12.3450945 27.8045388,12.9109252 C27.7596254,13.4767559 27.7034836,14.0470245 27.7034836,14.5473963 C27.6991045,14.8025749 27.7017993,15.0244693 27.7371687,15.2796478 C27.748397,15.4016898 27.7708537,15.5459211 27.8382239,15.7345313 C27.905594,15.9231416 27.9785783,16.222699 28.4333267,16.5444459 C28.8880752,16.8661927 29.203592,16.8440033 29.4101937,16.8440033 C29.6156726,16.8462222 29.7560271,16.8440033 29.8873989,16.8440033 C30.1490195,16.8440033 30.3735867,16.7219614 30.6183648,16.6442984 C31.1067983,16.4889723 31.6513736,16.2670779 32.1935909,16.0451835 C32.7359205,15.8232891 33.2715131,15.6013947 33.6776427,15.4460686 C33.8034003,15.4460686 33.880876,15.3351214 33.9740713,15.3351214 C34.0638982,15.3351214 34.1447423,15.4460686 34.2704999,15.4460686 C34.6758436,15.6124894 35.2103133,15.8343838 35.7517447,16.0562782 C36.2929514,16.2781726 36.8375267,16.500067 37.3253988,16.6553931 C37.5690541,16.7663403 37.7913755,16.7996244 38.0529962,16.855098 C38.184368,16.855098 38.3224768,16.855098 38.5279557,16.855098 C38.7334346,16.855098 39.0500742,16.855098 39.5070683,16.5555406 C39.9640624,16.2337937 40.0415381,15.9342363 40.1066625,15.7456261 C40.1740327,15.5570158 40.1964894,15.4238792 40.2077178,15.2907426 C40.2414028,15.035564 40.2414028,14.8136696 40.2414028,14.5584911 C40.2347781,14.0592287 40.1964894,13.493398 40.1403476,12.9209105 C40.0954342,12.3550798 40.0392924,11.7903585 40.0089758,11.3665402 C39.9992072,11.2334036 39.9977475,11.1557406 39.9865191,11.0558881 C40.0538893,10.9449409 40.1010484,10.9227515 40.1886295,10.822899 C40.472707,10.5011521 40.8567167,10.0795528 41.2418493,9.64463975 C41.626982,9.21194569 42.0109917,8.77925162 42.3208944,8.38095119 C42.4758457,8.18124624 42.6128316,7.992636 42.7430805,7.77074161 C42.8104507,7.65979441 42.8733295,7.5377525 42.9362083,7.34914227 C43.0035784,7.16053203 43.1169848,6.87206932 42.943619,6.3506175 C42.7707023,5.82916568 42.5034674,5.67383961 42.3384106,5.55179769 C42.1733538,5.42975577 42.0453505,5.37428218 41.9252071,5.31880858 C41.6837974,5.20786138 41.461476,5.13019835 41.215575,5.06363003 C40.7226502,4.91939867 40.1511268,4.77516732 39.5794912,4.6531254 C39.0079679,4.51998877 38.4391394,4.39794685 38.0138093,4.29809437 C37.8824375,4.29809437 37.8027162,4.18714718 37.7072751,4.18714718 C37.6511334,4.07619998 37.6062199,4.04291582 37.5354813,3.93196863 C37.3053,3.56584288 37.0099942,3.08876994 36.7068286,2.59616439 C36.403663,2.10799672 36.0937604,1.61982906 35.7973318,1.21265285 C35.6491175,1.00185318 35.5110087,0.824337667 35.3291093,0.635727433 C35.2392825,0.524780237 35.1415958,0.4471172 34.9742933,0.325075284 C34.8069908,0.214128088 34.5633354,0.0144231355 33.999672,0.0144231355 L33.985412,0 Z M33.9836154,3.86761925 C34.0397572,3.97856645 34.0734423,4.00075589 34.1295841,4.08951365 C34.4215213,4.55549187 34.7145814,5.04365953 34.9717108,5.44972627 C35.099714,5.64943122 35.2198574,5.82694674 35.3366323,5.99336753 C35.4534072,6.15978832 35.4152308,6.24854608 35.8913131,6.58138767 C36.3707639,6.92532398 36.4426254,6.85875566 36.6402445,6.91422926 C36.8367407,7.02517645 37.0500795,7.02517645 37.2869978,7.08065005 C37.7619572,7.19159725 38.3301121,7.32473388 38.8801892,7.4467758 C38.9812444,7.4467758 39.045246,7.4467758 39.1440556,7.55772299 C39.0766854,7.66867019 39.0430004,7.69085963 38.9700161,7.75742795 C38.5994803,8.16793257 38.2132249,8.58953192 37.8965852,8.95565766 C37.7382654,9.13317318 37.597911,9.29959397 37.4732762,9.45492005 C37.3486414,9.61024612 37.2487091,9.5991514 37.0634412,10.1427927 C36.8781733,10.6864339 36.962386,10.7419075 36.9736144,10.9416125 C36.9777688,11.1413174 36.9960711,11.3521171 37.0072994,11.5851062 C37.0409845,12.0621792 37.0971263,12.6169151 37.1431625,13.1683227 C37.1515838,13.2792699 37.1520329,13.3347435 37.1543909,13.434596 C37.064564,13.434596 36.9971939,13.3236488 36.9017529,13.3236488 C36.3807572,13.1128491 35.8462874,12.87986 35.3940092,12.7023445 C35.1671964,12.5913973 34.9662089,12.5359237 34.7719583,12.4693554 C34.5777077,12.3584082 34.5574967,12.3029346 33.9635167,12.3029346 C33.3695366,12.3018251 33.3504484,12.4138818 33.1561979,12.4582606 C32.9619473,12.5692078 32.7575912,12.602492 32.5307784,12.6912498 C32.0771528,12.8687653 31.5438059,13.0906597 31.0216874,13.3014593 C30.9318605,13.3014593 30.8622447,13.4124065 30.7679265,13.4124065 C30.7760109,13.3014593 30.7769092,13.2459857 30.7903832,13.1461333 C30.8352967,12.602492 30.8914385,12.0366613 30.9318605,11.5651357 C30.9543172,11.3321466 30.9655456,11.1213469 30.9655456,10.921642 C30.9704861,10.721937 31.0553724,10.6775581 30.8757188,10.1228222 C30.6938194,9.57918091 30.5950099,9.59027563 30.4703751,9.42385483 C30.3457403,9.26852876 30.2087544,9.10210796 30.0504346,8.91349773 C29.7349178,8.54737198 29.3497852,8.12577264 28.9814951,7.7119396 C28.9141249,7.6009924 28.8804399,7.57880296 28.8097012,7.51223464 C28.9107564,7.51223464 28.9713896,7.51223464 29.0724448,7.40128745 C29.6226342,7.27924553 30.1896662,7.15720362 30.6648502,7.04625642 C30.9028914,6.93530922 31.1162301,6.93530922 31.3127264,6.87983563 C31.5103454,6.76888843 31.5833297,6.88760193 32.0650262,6.54699404 C32.5467227,6.21415245 32.5051778,6.12539469 32.6230755,5.9589739 C32.7409733,5.79255311 32.858871,5.61503759 32.9879971,5.41533264 C33.2462493,5.01592273 33.541555,4.52775507 33.835738,4.06066738 C33.8918798,3.94972018 33.9255648,3.92753074 33.9805838,3.83877298 L33.9836154,3.86761925 Z M19.1050443,8.55735756 C18.5492407,8.55846704 18.3134452,8.7459678 18.1528797,8.85691499 C17.9923142,8.96786219 17.9013646,9.05661995 17.8182747,9.13428298 C17.6543407,9.30070378 17.5375658,9.45602985 17.4129311,9.62245065 C17.1636616,9.95529223 16.9121464,10.3547021 16.6639997,10.7430173 C16.4158531,11.1313325 16.1755662,11.5196477 15.9914212,11.8081104 C15.9577361,11.8081104 15.9465078,11.9190576 15.9128227,11.9190576 C15.8679093,11.9190576 15.8342242,11.9190576 15.7803281,11.9190576 C15.4412318,12.0300048 14.9808692,12.0965731 14.5157906,12.1964256 C14.0509367,12.3073728 13.5860828,12.4072253 13.1732161,12.5292672 C12.9666144,12.6402144 12.7791008,12.6513091 12.5612707,12.7511616 C12.4489871,12.7511616 12.3355808,12.8621088 12.1761381,12.9619612 C12.0166954,13.0729084 11.7517062,13.2282345 11.5765439,13.7385916 C11.4025044,14.2489487 11.5204021,14.5263167 11.5805861,14.7038322 C11.6367279,14.8813477 11.6996067,14.9922949 11.7579941,15.0921474 C11.8736462,15.2918524 11.9904211,15.4471784 12.1195472,15.6135992 C12.3777994,15.9464408 12.6854563,16.3014718 12.9964818,16.6454082 C13.3075072,16.9893445 13.6196555,17.3332808 13.8442227,17.5884593 C13.8779077,17.5884593 13.9003644,17.6994065 13.9340495,17.6994065 C13.930681,17.6994065 13.9304564,17.8103537 13.9258528,17.8325432 C13.9033961,18.1653847 13.8584827,18.6091735 13.8135693,19.0707139 C13.7686558,19.5255974 13.7349708,19.9804809 13.7237424,20.3998613 C13.7200371,20.6106609 13.7197002,20.7992712 13.7461991,21.0322603 C13.7574275,21.1432075 13.7798842,21.2652494 13.836026,21.4427649 C13.8921677,21.6202804 13.9696434,21.9198379 14.4221462,22.23049 C14.8757717,22.5522369 15.1867972,22.5300474 15.3844163,22.5300474 C15.5820353,22.5311569 15.7077929,22.5300474 15.8256907,22.5300474 C16.0614861,22.5300474 16.2501225,22.4191002 16.4544786,22.3636266 C16.8631908,22.23049 17.305588,22.0529745 17.746301,21.875459 C18.1864525,21.6979435 18.6198671,21.5204279 18.9429069,21.398386 C18.9990486,21.398386 19.0215054,21.398386 19.0686645,21.398386 C19.1135779,21.398386 19.1360346,21.398386 19.1966677,21.398386 C19.5189215,21.5204279 19.9512132,21.7090382 20.3909157,21.8865537 C20.8299444,22.0640692 21.2734645,22.2415847 21.6816152,22.3747214 C21.8859713,22.4856686 22.0746077,22.4967633 22.3092803,22.5411422 C22.427178,22.5411422 22.5529356,22.5411422 22.7505547,22.5411422 C22.9481738,22.5400327 23.2603221,22.5411422 23.7150705,22.2526794 C24.1698189,21.9309326 24.243926,21.6424699 24.3068048,21.4649544 C24.374175,21.2874388 24.3854033,21.1653969 24.3966317,21.043355 C24.4303168,20.8103659 24.4303168,20.6217557 24.4303168,20.4220507 C24.4248149,20.0115461 24.3854033,19.5455679 24.3517183,19.0917938 C24.3180332,18.6369103 24.2731198,18.1820268 24.2394347,17.8514042 C24.2350556,17.740457 24.2346065,17.740457 24.2314626,17.7182675 C24.2651476,17.7182675 24.276376,17.6073203 24.3212894,17.6073203 C24.5469794,17.3521418 24.8591277,17.0082055 25.171276,16.6642692 C25.4834243,16.3203329 25.7955726,15.9653018 26.0549476,15.643555 C26.1840737,15.4771342 26.3008486,15.3218081 26.4176235,15.1221032 C26.4737653,15.011156 26.5377669,14.9113035 26.5984,14.733788 C26.6545418,14.5562725 26.7780537,14.2789045 26.605923,13.7685474 C26.4341292,13.2581903 26.1680171,13.1028642 26.0085745,12.991917 C25.8502547,12.8809698 25.7346026,12.8254962 25.6268104,12.7700226 C25.4101031,12.6590754 25.2203439,12.6146965 25.0137421,12.5481282 C24.6016615,12.4260863 24.1368075,12.3151391 23.6722904,12.2152866 C23.2085593,12.1043394 22.7504424,12.0155817 22.412132,11.9268239 C22.3559903,11.9268239 22.3335335,11.9268239 22.2796374,11.9268239 C22.2571807,11.9268239 22.234724,11.8158767 22.2010389,11.8158767 C22.0180167,11.527414 21.7799756,11.1390988 21.5340746,10.7507836 C21.2881736,10.3624684 21.0355356,9.96305854 20.7885118,9.62799801 C20.6649998,9.46157721 20.5482249,9.30625114 20.3854138,9.13983034 C20.3068153,9.02888315 20.2147428,8.96231483 20.0541773,8.85136763 C19.8936118,8.74042044 19.6566935,8.54071548 19.0952757,8.54071548 L19.0886509,8.54071548 L19.1050443,8.55735756 Z M48.8627592,8.55735756 C48.3069555,8.55846704 48.0711601,8.7459678 47.9105946,8.85691499 C47.7500291,8.96786219 47.6590794,9.05661995 47.5759896,9.13428298 C47.4120556,9.30070378 47.2952807,9.45602985 47.1706459,9.62245065 C46.9213764,9.95529223 46.6698612,10.3547021 46.4217146,10.7430173 C46.1735679,11.1313325 45.9332811,11.5196477 45.749136,11.8081104 C45.715451,11.8081104 45.7042226,11.9190576 45.6705375,11.9190576 C45.6256241,11.9190576 45.591939,11.9190576 45.5380429,11.9190576 C45.1989466,12.0300048 44.738584,12.0965731 44.2735055,12.1964256 C43.8086515,12.3073728 43.3426748,12.4072253 42.9309309,12.5292672 C42.7243292,12.6402144 42.5368156,12.6513091 42.3189855,12.7511616 C42.206702,12.7511616 42.0932956,12.8621088 41.9338529,12.9619612 C41.7744103,13.0729084 41.5094211,13.2282345 41.3342587,13.7385916 C41.1602192,14.2489487 41.2781169,14.5263167 41.3383009,14.7038322 C41.3944427,14.8813477 41.4573215,14.9922949 41.5157089,15.0921474 C41.631361,15.2918524 41.7481359,15.4471784 41.877262,15.6135992 C42.1355142,15.9464408 42.4431712,16.3014718 42.7541966,16.6454082 C43.0652221,16.9893445 43.3773704,17.3332808 43.6019375,17.5884593 C43.6356226,17.5884593 43.6580793,17.6994065 43.6917643,17.6994065 C43.6883958,17.6994065 43.6881713,17.8103537 43.6835676,17.8325432 C43.6611109,18.1653847 43.6161975,18.6091735 43.5712841,19.0707139 C43.5263707,19.5255974 43.4926856,19.9804809 43.4814572,20.3998613 C43.4778642,20.6106609 43.477415,20.7992712 43.503914,21.0322603 C43.5151423,21.1432075 43.537599,21.2652494 43.5937408,21.4427649 C43.6611109,21.6202804 43.7273582,21.9198379 44.179861,22.23049 C44.6334866,22.5522369 44.944512,22.5300474 45.1421311,22.5300474 C45.3397502,22.5311569 45.4655078,22.5300474 45.5834055,22.5300474 C45.819201,22.5300474 46.0078374,22.4191002 46.2121934,22.3636266 C46.6209056,22.23049 47.0644257,22.0529745 47.5040158,21.875459 C47.9441674,21.6979435 48.3775819,21.5204279 48.7006217,21.398386 C48.7567635,21.398386 48.7792202,21.398386 48.8263793,21.398386 C48.8712927,21.398386 48.8937494,21.398386 48.9543825,21.398386 C49.2766364,21.5204279 49.7089281,21.7090382 50.1486305,21.8865537 C50.5876592,22.0640692 51.0311793,22.2415847 51.43933,22.3747214 C51.6436861,22.4856686 51.8323225,22.4967633 52.0669951,22.5411422 C52.1848929,22.5411422 52.3106505,22.5411422 52.5082695,22.5411422 C52.7058886,22.5400327 53.0180369,22.5411422 53.4727853,22.2526794 C53.9275337,21.9309326 54.0016409,21.6424699 54.0645197,21.4649544 C54.1318898,21.2874388 54.1431182,21.1653969 54.1543465,21.043355 C54.1880316,20.8103659 54.1880316,20.6217557 54.1880316,20.4220507 C54.1825297,20.0115461 54.1431182,19.5455679 54.1094331,19.0917938 C54.075748,18.6369103 54.0308346,18.1820268 53.9971495,17.8514042 C53.9927705,17.740457 53.9923213,17.740457 53.9891774,17.7182675 C54.0228625,17.7182675 54.0340908,17.6073203 54.0790042,17.6073203 C54.3046942,17.3521418 54.6168425,17.0082055 54.9289908,16.6642692 C55.2411391,16.3203329 55.5532874,15.9653018 55.8126624,15.643555 C55.9429114,15.4771342 56.0585634,15.3218081 56.1753383,15.1221032 C56.2314801,15.011156 56.2954817,14.9113035 56.3561149,14.733788 C56.4122566,14.5562725 56.5357686,14.2789045 56.3636379,13.7685474 C56.191844,13.2581903 55.925732,13.1028642 55.7662893,12.991917 C55.6079695,12.8809698 55.4923174,12.8254962 55.3845252,12.7700226 C55.1678179,12.6590754 54.9780587,12.6146965 54.771457,12.5481282 C54.3593763,12.4260863 53.8945224,12.3151391 53.4300053,12.2152866 C52.9662742,12.1043394 52.5081572,12.0155817 52.1698469,11.9268239 C52.1137051,11.9268239 52.0912484,11.9268239 52.0373523,11.9268239 C52.0148956,11.9268239 51.9924388,11.8158767 51.9587538,11.8158767 C51.7757316,11.527414 51.5376904,11.1390988 51.2917894,10.7507836 C51.0458884,10.3624684 50.7932504,9.96305854 50.5462266,9.62799801 C50.4227147,9.46157721 50.3059398,9.30625114 50.1431286,9.13983034 C50.0645301,9.02888315 49.9724576,8.96231483 49.8118921,8.85136763 C49.6513266,8.74042044 49.4144083,8.54071548 48.8529905,8.54071548 L48.8463658,8.54071548 L48.8627592,8.55735756 Z M19.1034724,12.4749031 C19.2921087,12.7744605 19.481868,13.0851126 19.6502933,13.3513859 C19.7513485,13.5178067 19.8524037,13.6620381 19.9512132,13.8062694 C20.0522684,13.939406 19.9961267,14.0170691 20.4688405,14.3499107 C20.9426771,14.6827523 20.9954504,14.6050892 21.1638757,14.6605628 C21.332301,14.6605628 21.5052177,14.77151 21.6994683,14.7936995 C22.0116166,14.9046466 22.3765381,14.9490255 22.7347227,15.0266886 C22.4933131,15.2929618 22.2451664,15.5592351 22.0374418,15.7922242 C21.9083157,15.9364556 21.7926636,16.0695922 21.6859943,16.2027288 C21.5737107,16.3358655 21.4917437,16.313676 21.3087215,16.8462226 C21.1268221,17.3787691 21.2188946,17.4120533 21.2188946,17.5784741 C21.2223754,17.7448949 21.230123,17.9224104 21.2525797,18.1110206 C21.2750364,18.4216728 21.3087215,18.7767038 21.3424066,19.1317348 C21.004433,18.9985982 20.6597225,18.8543668 20.3621711,18.7323249 C20.1769032,18.6213777 20.0107235,18.5991883 19.8445439,18.5437147 C19.6783642,18.4327675 19.6817327,18.3994833 19.0944897,18.3994833 C18.5083695,18.3983739 18.5106152,18.5104305 18.3444355,18.5437147 C18.1782558,18.5437147 18.0098305,18.6657566 17.8245626,18.7323249 C17.5270112,18.8543668 17.1823006,18.9875035 16.8432043,19.1317348 C16.8768894,18.7767038 16.9105744,18.4216728 16.9330311,18.1110206 C16.9442595,17.9224104 16.9554878,17.7448949 16.9667162,17.5784741 C16.970983,17.4120533 17.0565431,17.3898638 16.8768894,16.8462226 C16.6972357,16.313676 16.6096545,16.3358655 16.5029851,16.2027288 C16.4019299,16.0695922 16.2806636,15.9364556 16.1515376,15.7922242 C15.9449358,15.5592351 15.697912,15.2818671 15.4576252,15.0155938 C15.8158097,14.9046466 16.1796084,14.8602678 16.4917567,14.7826047 C16.6860073,14.7826047 16.8611697,14.6716575 17.029595,14.6494681 C17.1980203,14.6494681 17.2507936,14.6494681 17.7257531,14.3388159 C18.2007125,14.0059744 18.1456936,13.939406 18.245626,13.7951747 C18.3466812,13.6620381 18.443245,13.506712 18.5499144,13.3513859 C18.7194626,13.0851126 18.9125903,12.7855552 19.1023495,12.4859978 L19.1034724,12.4749031 Z M48.8611872,12.4749031 L48.8611872,12.4749031 C49.0498236,12.7744605 49.2395828,13.0851126 49.4080081,13.3513859 C49.5090633,13.5178067 49.6089957,13.6620381 49.7089281,13.8062694 C49.8099833,13.939406 49.7538415,14.0170691 50.2265553,14.3499107 C50.7003919,14.6827523 50.7531652,14.6050892 50.9215905,14.6605628 C51.0900159,14.6605628 51.2629326,14.77151 51.4571831,14.7936995 C51.7693314,14.9046466 52.134253,14.9490255 52.4924375,15.0266886 C52.2510279,15.2929618 52.0028812,15.5592351 51.7951566,15.7922242 C51.6660305,15.9364556 51.5503785,16.0695922 51.4437091,16.2027288 C51.3314255,16.3358655 51.2483357,16.313676 51.0664363,16.8462226 C50.884537,17.3787691 50.9766095,17.4120533 50.9766095,17.5784741 C50.9800903,17.7448949 50.9878378,17.9224104 51.0102945,18.1110206 C51.0327513,18.4216728 51.0664363,18.7767038 51.1001214,19.1317348 C50.7621479,18.9985982 50.4174373,18.8543668 50.1198859,18.7323249 C49.934618,18.6213777 49.7684384,18.5991883 49.6022587,18.5437147 C49.436079,18.4327675 49.4394475,18.3994833 48.8522045,18.3994833 C48.2660843,18.3983739 48.26833,18.5104305 48.1021503,18.5437147 C47.9359707,18.5437147 47.7675453,18.6657566 47.5822774,18.7323249 C47.284726,18.8543668 46.9400155,18.9875035 46.6009191,19.1317348 C46.6346042,18.7767038 46.6682893,18.4216728 46.690746,18.1110206 C46.7019743,17.9224104 46.7132027,17.7448949 46.724431,17.5784741 C46.7286978,17.4120533 46.8142579,17.3898638 46.6346042,16.8462226 C46.4549505,16.313676 46.3673693,16.3358655 46.2606999,16.2027288 C46.1596447,16.0695922 46.0383785,15.9364556 45.9092524,15.7922242 C45.7026506,15.5592351 45.4556268,15.2818671 45.2164628,15.0155938 C45.5746474,14.9046466 45.9384461,14.8602678 46.2505944,14.7826047 C46.444845,14.7826047 46.6200073,14.6716575 46.7884327,14.6494681 C46.956858,14.6494681 47.0096313,14.6494681 47.4845907,14.3388159 C47.9595502,14.0059744 47.9045313,13.939406 48.0044636,13.7951747 C48.1055188,13.6620381 48.2020827,13.506712 48.3087521,13.3513859 C48.4783003,13.0851126 48.671428,12.7855552 48.8611872,12.4859978 L48.8611872,12.4749031 Z M6.4954882,16.5233662 C5.94529875,16.5233662 5.71511745,16.7119765 5.56128898,16.8229237 C5.40633766,16.9338709 5.32324783,17.0115339 5.24801784,17.0891969 C5.09868071,17.244523 4.99874834,17.3776596 4.89320179,17.521891 C4.6821087,17.8103537 4.47438411,18.1431953 4.27115087,18.4649422 C4.06679479,18.786689 3.87029856,19.1084359 3.72208426,19.341425 C3.72152284,19.341425 3.72051229,19.341425 3.71983858,19.3425345 C3.44698953,19.4534817 3.07196244,19.4867658 2.69019833,19.5755236 C2.30843423,19.6864708 1.92330162,19.7530391 1.57297691,19.8528916 C1.39781455,19.8528916 1.23724906,19.9638388 1.03850716,20.0415018 C0.937451954,20.0415018 0.830782572,20.152449 0.67807693,20.2412068 C0.525371287,20.352154 0.263750591,20.4963853 0.0908339081,21.0067424 C-0.0820827751,21.5170995 0.0346921278,21.7944675 0.0920690272,21.9608883 C0.148210808,22.1384038 0.206598259,22.2382563 0.259371532,22.3270141 C0.360426737,22.5156243 0.464850448,22.6487609 0.573765502,22.7818976 C0.792718445,23.0703603 1.04760213,23.358823 1.30360865,23.6472857 C1.55849233,23.9357484 1.81225317,24.2131164 1.99302971,24.4239161 C1.99381569,24.4250255 1.99381569,24.4250255 1.99460168,24.426135 C1.97214496,24.6924083 1.9384599,25.0696288 1.90477483,25.4468492 C1.87108976,25.8240697 1.83740469,26.2012902 1.83740469,26.5596496 C1.83426075,26.7371651 1.83347477,26.9035859 1.8598614,27.1143856 C1.87108976,27.2253328 1.88231812,27.33628 1.94968825,27.5137955 C2.00583003,27.691311 2.07993718,27.9797737 2.52907142,28.2904259 C2.97708283,28.6121727 3.28024844,28.5788886 3.47000766,28.5788886 C3.65976688,28.579998 3.77878745,28.5788886 3.88657967,28.5788886 C4.10104127,28.5788886 4.2627296,28.4679414 4.43564628,28.4346572 C4.78260248,28.32371 5.14752406,28.1794787 5.51019996,28.0241526 C5.87175302,27.8799212 6.2243234,27.7356899 6.48482126,27.6247427 C6.48549496,27.6258521 6.48583181,27.6247427 6.4866178,27.6258521 C6.48740378,27.6258521 6.48774063,27.6258521 6.48841434,27.6258521 C6.74778936,27.7367993 7.10148258,27.8810307 7.46303564,28.0252621 C7.82458871,28.1694934 8.18838744,28.3137248 8.53422081,28.4357667 C8.70713749,28.5467139 8.86994865,28.5467139 9.08328742,28.5910928 C9.19557098,28.5910928 9.30785454,28.5910928 9.49761376,28.5910928 C9.68737298,28.5899833 9.99166142,28.5910928 10.4419185,28.30263 C10.8921756,27.9919779 10.9640371,27.7035152 11.0246702,27.5259997 C11.080812,27.3484842 11.1032687,27.237537 11.114497,27.1376845 C11.1369537,26.9268848 11.1369537,26.760464 11.1369537,26.5829485 C11.1323501,26.2279175 11.1032687,25.850697 11.0695836,25.4712576 C11.0358985,25.0940371 11.0022135,24.7168167 10.9797568,24.4505434 C10.9796445,24.4505434 10.9800936,24.4494339 10.9799813,24.4494339 C10.9799813,24.4483245 10.9804305,24.4483245 10.9803182,24.447215 C11.1622175,24.2364153 11.4159784,23.9590473 11.6731077,23.6816793 C11.9302371,23.3932166 12.1873665,23.1047539 12.4074422,22.8273859 C12.5197258,22.6831546 12.6174125,22.5500179 12.722959,22.3725024 C12.7791008,22.2615552 12.8352426,22.1727975 12.8925072,22.0063767 C12.948649,21.8288612 13.0687924,21.5625879 12.898346,21.0522308 C12.7276749,20.5418737 12.4671771,20.3865476 12.3144714,20.2756004 C12.1617658,20.1646532 12.0528507,20.1202743 11.9540412,20.0758955 C11.7564221,19.9649483 11.5958567,19.9316641 11.4206943,19.8872852 C11.0714924,19.776338 10.6874826,19.6875803 10.3068414,19.5988225 C9.92507727,19.4878753 9.54892735,19.4324017 9.27720113,19.3658334 C9.27663971,19.3647239 9.27630286,19.3647239 9.27574144,19.3636145 C9.12864998,19.1306253 8.93215375,18.8088785 8.73004334,18.4871316 C8.52793293,18.1653847 8.32133118,17.8325432 8.11136092,17.5440804 C8.01030572,17.3998491 7.90700484,17.2667125 7.7576677,17.1113864 C7.67906921,17.0004392 7.60159355,16.9449656 7.44776508,16.8451131 C7.2939366,16.7341659 7.06150963,16.5455557 6.505706,16.5455557 L6.49919356,16.5455557 L6.4954882,16.5233662 Z M61.5103794,16.5233662 C60.96019,16.5233662 60.7300087,16.7119765 60.5761802,16.8229237 C60.4212289,16.9338709 60.338139,17.0115339 60.2629091,17.0891969 C60.1135719,17.244523 60.0136396,17.3776596 59.908093,17.521891 C59.6969999,17.8103537 59.4892753,18.1431953 59.2860421,18.4649422 C59.081686,18.786689 58.8851898,19.1084359 58.7369755,19.341425 C58.7364141,19.341425 58.7354035,19.341425 58.7347298,19.3425345 C58.4618808,19.4534817 58.0868537,19.4867658 57.7050896,19.5755236 C57.3233254,19.6864708 56.9381928,19.7530391 56.5878681,19.8528916 C56.4127058,19.8528916 56.2521403,19.9638388 56.0533984,20.0415018 C55.9523432,20.0415018 55.8456738,20.152449 55.6929681,20.2412068 C55.5402625,20.352154 55.2786418,20.4963853 55.1057251,21.0067424 C54.9328084,21.5170995 55.0495833,21.7944675 55.1069602,21.9608883 C55.163102,22.1384038 55.2214895,22.2382563 55.2742628,22.3270141 C55.375318,22.5156243 55.4797417,22.6487609 55.5886567,22.7818976 C55.8076097,23.0703603 56.0624933,23.358823 56.3184999,23.6472857 C56.5733835,23.9357484 56.8271444,24.2131164 57.0079209,24.4239161 C57.0087069,24.4250255 57.0087069,24.4250255 57.0094929,24.426135 C56.9870362,24.6924083 56.9533511,25.0696288 56.919666,25.4468492 C56.885981,25.8240697 56.8522959,26.2012902 56.8522959,26.5596496 C56.8492643,26.7371651 56.848366,26.9035859 56.8747526,27.1143856 C56.885981,27.2253328 56.8972093,27.33628 56.9645795,27.5137955 C57.0207213,27.691311 57.0948284,27.9797737 57.5439626,28.2904259 C57.9919741,28.6121727 58.2951397,28.5788886 58.4848989,28.5788886 C58.6746581,28.579998 58.7936787,28.5788886 58.9014709,28.5788886 C59.1159325,28.5788886 59.2776208,28.4679414 59.4505375,28.4346572 C59.7974937,28.32371 60.1624153,28.1794787 60.5250912,28.0241526 C60.8866442,27.8799212 61.2392146,27.7356899 61.4997125,27.6247427 C61.5003862,27.6258521 61.500723,27.6247427 61.501509,27.6258521 C61.502295,27.6258521 61.5026319,27.6258521 61.5033056,27.6258521 C61.7626806,27.7367993 62.1163738,27.8810307 62.4779269,28.0252621 C62.8394799,28.1694934 63.2032787,28.3137248 63.549112,28.4357667 C63.7220287,28.5467139 63.8848399,28.5467139 64.0981786,28.5910928 C64.2104622,28.5910928 64.3227458,28.5910928 64.512505,28.5910928 C64.7022642,28.5899833 65.0065526,28.5910928 65.4556869,28.30263 C65.905944,27.9919779 65.9778054,27.7035152 66.0384386,27.5259997 C66.0945803,27.3484842 66.1170371,27.237537 66.1282654,27.1376845 C66.1507221,26.9268848 66.1507221,26.760464 66.1507221,26.5829485 C66.1461185,26.2279175 66.1170371,25.850697 66.083352,25.4712576 C66.0496669,25.0940371 66.0159819,24.7168167 65.9935251,24.4505434 C65.9934129,24.4505434 65.993862,24.4494339 65.9937497,24.4494339 C65.9937497,24.4483245 65.9940866,24.4483245 65.9940866,24.447215 C66.1759859,24.2364153 66.4297468,23.9590473 66.6868761,23.6816793 C66.9440055,23.3932166 67.2011348,23.1047539 67.4212106,22.8273859 C67.5334942,22.6831546 67.6311809,22.5500179 67.7367274,22.3725024 C67.7928692,22.2615552 67.849011,22.1727975 67.9062756,22.0063767 C67.9624174,21.8288612 68.0825608,21.5625879 67.9121143,21.0522308 C67.7414433,20.5418737 67.4809455,20.3865476 67.3282398,20.2756004 C67.1755342,20.1646532 67.0666191,20.1202743 66.9678096,20.0758955 C66.7701905,19.9649483 66.609625,19.9316641 66.4344627,19.8872852 C66.0852608,19.776338 65.701251,19.6875803 65.3206098,19.5988225 C64.9388457,19.4878753 64.5626957,19.4324017 64.2909695,19.3658334 C64.2904081,19.3647239 64.2900712,19.3647239 64.2895098,19.3636145 C64.1424184,19.1306253 63.9459221,18.8088785 63.7438117,18.4871316 C63.5417013,18.1653847 63.3350996,17.8325432 63.1251293,17.5440804 C63.0240741,17.3998491 62.9207732,17.2667125 62.7725589,17.1113864 C62.6939604,17.0004392 62.6164848,16.9449656 62.4626563,16.8451131 C62.3088278,16.7341659 62.0764008,16.5455557 61.5205972,16.5455557 L61.5140848,16.5455557 L61.5103794,16.5233662 Z M6.49268111,20.5130274 C6.56005125,20.6350693 6.64426392,20.7571112 6.71163405,20.8680584 C6.8014609,21.0011951 6.87893656,21.123237 6.9653949,21.2452789 C7.05522175,21.3673208 6.98785161,21.4227944 7.45158272,21.755636 C7.91755949,22.0884776 7.95461307,21.9997198 8.1005817,22.0440987 C8.24655033,22.0440987 8.39251896,22.1550459 8.55308445,22.1661406 C8.67884203,22.1661406 8.82817917,22.2770878 8.96628795,22.2770878 C8.8764611,22.388035 8.77203739,22.4878875 8.68782472,22.58774 C8.57554116,22.7097819 8.48346864,22.8207291 8.39139612,22.942771 C8.30156927,23.0648129 8.22072511,23.0537182 8.04219425,23.5418859 C7.86254055,24.0744324 7.9523674,24.0855271 7.9523674,24.2297585 C7.95539905,24.3739898 7.96359575,24.5182212 7.97482411,24.684642 C7.98414365,24.8066839 7.99728082,24.96201 8.00850918,25.0951466 C7.87713741,25.0951466 7.73678296,24.9841994 7.61551672,24.9287258 C7.46168824,24.8177786 7.32357946,24.8177786 7.1798565,24.762305 C7.03613354,24.762305 7.05297608,24.6291684 6.47696141,24.6291684 C5.90094675,24.6280589 5.91891212,24.7401156 5.77518916,24.762305 C5.6314662,24.762305 5.48998892,24.8732522 5.33616044,24.9287258 C5.21601703,24.9287258 5.07453974,25.039673 4.94316798,25.0840519 C4.95439633,24.9509153 4.96562469,24.7955892 4.97685304,24.6735473 C4.9880814,24.5182212 4.99930976,24.3739898 4.99930976,24.2186638 C5.00301511,24.0744324 5.0891366,24.0633377 4.92071126,23.5307911 C4.74330324,22.9982446 4.66582758,23.0426235 4.57375506,22.9205816 C4.48392821,22.7985396 4.38624152,22.6875925 4.27957213,22.5655505 C4.20097364,22.4546033 4.09542709,22.3547509 4.00223174,22.2548984 C4.14034052,22.2548984 4.28855482,22.1439512 4.41431241,22.1439512 C4.57600073,22.1439512 4.72196936,22.033004 4.86793799,22.033004 C5.01390662,22.033004 5.05208303,22.033004 5.51918264,21.7445413 C5.98628225,21.4116997 5.92003495,21.3562261 6.00761613,21.2341842 C6.09744298,21.1121423 6.17604147,20.9901004 6.26362265,20.8569637 C6.33099278,20.7460165 6.40846844,20.6239746 6.48257559,20.5019327 L6.49268111,20.5130274 Z M61.5075723,20.5130274 C61.5749425,20.6350693 61.6591551,20.7571112 61.7265253,20.8680584 C61.8163521,21.0011951 61.8938278,21.123237 61.9802861,21.2452789 C62.070113,21.3673208 62.0027428,21.4227944 62.4664739,21.755636 C62.9324507,22.0884776 62.9695043,21.9997198 63.1154729,22.0440987 C63.2614415,22.0440987 63.4074102,22.1550459 63.5679757,22.1661406 C63.6937333,22.1661406 63.8430704,22.2770878 63.9811792,22.2770878 C63.8913523,22.388035 63.7869286,22.4878875 63.7027159,22.58774 C63.5904324,22.7097819 63.4983599,22.8207291 63.4062873,22.942771 C63.3164605,23.0648129 63.2356163,23.0537182 63.0570855,23.5418859 C62.8774318,24.0744324 62.9672586,24.0855271 62.9672586,24.2297585 C62.9702903,24.3739898 62.978487,24.5182212 62.9897153,24.684642 C62.9990349,24.8066839 63.012172,24.96201 63.0234004,25.0951466 C62.8920286,25.0951466 62.7516742,24.9841994 62.6304079,24.9287258 C62.4765795,24.8177786 62.3384707,24.8177786 62.1947477,24.762305 C62.0510248,24.762305 62.0678673,24.6291684 61.4918526,24.6291684 C60.915838,24.6280589 60.9338033,24.7401156 60.7900804,24.762305 C60.6463574,24.762305 60.5048801,24.8732522 60.3510517,24.9287258 C60.2309082,24.9287258 60.089431,25.039673 59.9580592,25.0840519 C59.9692876,24.9509153 59.9805159,24.7955892 59.9917443,24.6735473 C60.0029726,24.5182212 60.014201,24.3739898 60.014201,24.2186638 C60.0179063,24.0744324 60.1040278,24.0633377 59.9356025,23.5307911 C59.7581945,22.9982446 59.6807188,23.0426235 59.5886463,22.9205816 C59.4988194,22.7985396 59.4011327,22.6875925 59.2944634,22.5655505 C59.2158649,22.4546033 59.1103183,22.3547509 59.017123,22.2548984 C59.1552317,22.2548984 59.303446,22.1439512 59.4292036,22.1439512 C59.590892,22.1439512 59.7368606,22.033004 59.8828292,22.033004 C60.0287978,22.033004 60.0669742,22.033004 60.5340739,21.7445413 C61.0011735,21.4116997 60.9349262,21.3562261 61.0225073,21.2341842 C61.1123342,21.1121423 61.1909327,20.9901004 61.2785139,20.8569637 C61.345884,20.7460165 61.4233597,20.6239746 61.4974668,20.5019327 L61.5075723,20.5130274 Z M21.9751132,25.5289501 C21.155177,25.5289501 20.4903512,26.1854947 20.4897252,26.9956721 L20.4897252,31.3536779 L17.1154919,31.3536779 C16.295113,31.3537454 15.630099,32.0108943 15.6300927,32.8215093 L15.6300927,88.0643372 L6.05342782,88.0643372 C5.65947343,88.0643601 5.28166431,88.2190206 5.00311754,88.4942938 C4.72457078,88.769567 4.56814088,89.1429029 4.56814088,89.5321686 C4.56814088,89.9214343 4.72457078,90.2947702 5.00311754,90.5700434 C5.28166431,90.8453166 5.65947343,91 6.05342782,91 L17.1153796,91 C17.1154171,91 17.1154545,91 17.1154919,91 L26.5919886,91 L41.4129695,91 L50.8893651,91 C50.8894026,91 50.88944,91 50.8894774,91 L61.9514292,91 C62.3454031,91 62.7232411,90.845359 63.0018121,90.5700826 C63.2803832,90.2948062 63.4368285,89.9214535 63.4368285,89.5321686 C63.4368285,89.1428837 63.2803832,88.769531 63.0018121,88.4942546 C62.7232411,88.2189782 62.3454031,88.0643307 61.9514292,88.0643372 L52.3747644,88.0643372 L52.3747644,32.8215093 C52.3747581,32.0108943 51.7097441,31.3537454 50.8893651,31.3536779 L47.5150196,31.3536779 L47.5150196,26.9956721 C47.5143936,26.1854904 46.849561,25.5289501 46.0296204,25.5289501 L21.9751132,25.5289501 Z M23.4605124,28.4635035 L44.5443334,28.4635035 L44.5443334,31.3536779 L23.4605124,31.3536779 L23.4605124,28.4635035 Z M18.6008911,34.2893407 L21.9750009,34.2893407 C21.9750383,34.2893407 21.9750758,34.2893407 21.9751132,34.2893407 L46.0296204,34.2893407 C46.0296952,34.2893407 46.0297701,34.2893407 46.0298449,34.2893407 L49.4039659,34.2893407 L49.4039659,88.0643372 L42.8982564,88.0643372 L42.8982564,77.1626657 C42.8982502,76.352094 42.2333045,75.694963 41.4129695,75.6948343 L26.5919886,75.6948343 C25.7716097,75.6949018 25.1065957,76.3520507 25.1065894,77.1626657 L25.1065894,88.0643372 L18.6008911,88.0643372 L18.6008911,34.2893407 Z M24.2369532,37.3237466 C23.4165743,37.323814 22.7515603,37.9809629 22.751554,38.791578 L22.751554,46.0408677 C22.7515603,46.8514828 23.4165743,47.5086317 24.2369532,47.5086992 L30.3777412,47.5086992 C31.1981201,47.5086317 31.8631341,46.8514828 31.8631404,46.0408677 L31.8631404,38.791578 C31.8631341,37.9809629 31.1981201,37.323814 30.3777412,37.3237466 L24.2369532,37.3237466 Z M37.6271047,37.3237466 C36.8067258,37.323814 36.1417117,37.9809629 36.1417055,38.791578 L36.1417055,46.0408677 C36.1417117,46.8514828 36.8067258,47.5086317 37.6271047,47.5086992 L43.7678926,47.5086992 C44.5882715,47.5086317 45.2532856,46.8514828 45.2532918,46.0408677 L45.2532918,38.791578 C45.2532856,37.9809629 44.5882715,37.323814 43.7678926,37.3237466 L37.6271047,37.3237466 Z M25.7223525,40.2582999 L28.8923419,40.2582999 L28.8923419,44.5730363 L25.7223525,44.5730363 L25.7223525,40.2582999 Z M39.1123916,40.2582999 L42.2824934,40.2582999 L42.2824934,44.5730363 L39.1123916,44.5730363 L39.1123916,40.2582999 Z M24.2369532,49.8929544 C23.4165743,49.8930219 22.7515603,50.5501708 22.751554,51.3607858 L22.751554,58.6100756 C22.7515603,59.4206906 23.4165743,60.0778395 24.2369532,60.077907 L30.3777412,60.077907 C31.1981201,60.0778395 31.8631341,59.4206906 31.8631404,58.6100756 L31.8631404,51.3607858 C31.8631341,50.5501708 31.1981201,49.8930219 30.3777412,49.8929544 L24.2369532,49.8929544 Z M37.6271047,49.8929544 C36.8067258,49.8930219 36.1417117,50.5501708 36.1417055,51.3607858 L36.1417055,58.6100756 C36.1417117,59.4206906 36.8067258,60.0778395 37.6271047,60.077907 L43.7678926,60.077907 C44.5882715,60.0778395 45.2532856,59.4206906 45.2532918,58.6100756 L45.2532918,51.3607858 C45.2532856,50.5501708 44.5882715,49.8930219 43.7678926,49.8929544 L37.6271047,49.8929544 Z M25.7223525,52.8275077 L28.8923419,52.8275077 L28.8923419,57.1422442 L25.7223525,57.1422442 L25.7223525,52.8275077 Z M39.1123916,52.8275077 L42.2824934,52.8275077 L42.2824934,57.1422442 L39.1123916,57.1422442 L39.1123916,52.8275077 Z M24.2369532,62.4621622 C23.4165743,62.4622297 22.7515603,63.1193786 22.751554,63.9299936 L22.751554,71.1792834 C22.7515603,71.9898984 23.4165743,72.6470474 24.2369532,72.6471148 L30.3777412,72.6471148 C31.1981201,72.6470474 31.8631341,71.9898984 31.8631404,71.1792834 L31.8631404,63.9299936 C31.8631341,63.1193786 31.1981201,62.4622297 30.3777412,62.4621622 L24.2369532,62.4621622 Z M37.6271047,62.4621622 C36.8067258,62.4622297 36.1417117,63.1193786 36.1417055,63.9299936 L36.1417055,71.1792834 C36.1417117,71.9898984 36.8067258,72.6470474 37.6271047,72.6471148 L43.7678926,72.6471148 C44.5882715,72.6470474 45.2532856,71.9898984 45.2532918,71.1792834 L45.2532918,63.9299936 C45.2532856,63.1193786 44.5882715,62.4622297 43.7678926,62.4621622 L37.6271047,62.4621622 Z M25.7223525,65.3967156 L28.8923419,65.3967156 L28.8923419,69.711452 L25.7223525,69.711452 L25.7223525,65.3967156 Z M39.1123916,65.3967156 L42.2824934,65.3967156 L42.2824934,69.711452 L39.1123916,69.711452 L39.1123916,65.3967156 Z M28.0772756,78.6304971 L32.5170798,78.6304971 L32.5170798,88.0643372 L28.0772756,88.0643372 L28.0772756,78.6304971 Z M35.487766,78.6304971 L39.9275703,78.6304971 L39.9275703,88.0643372 L35.487766,88.0643372 L35.487766,78.6304971 Z" id="Shape"></path>
            </g>
        </g>
    </g>
</svg>