<?xml version="1.0" encoding="UTF-8"?>
<svg width="84px" height="83px" viewBox="0 0 84 83" version="1.1" xmlns="http://www.w3.org/2000/svg" xmlns:xlink="http://www.w3.org/1999/xlink">
    <title>Group 3</title>
    <g id="Page-1" stroke="none" stroke-width="1" fill="none" fill-rule="evenodd">
        <g id="Artboard" transform="translate(-2063.000000, -1529.000000)" fill-rule="nonzero">
            <g id="Group-3" transform="translate(2063.500000, 1529.000000)">
                <path d="M81.5,39.8 L71.4,39.8 C68.9,29.9 58.9,23.9 49,26.3 C42.4,28 37.2,33.1 35.5,39.8 L29.7,39.8 C29.1,35.8 25.9,32.7 22,32.1 L22,30 L23,30 C23.8,30 24.5,29.3 24.5,28.5 C24.5,27.7 23.8,27 23,27 L18,27 C17.2,27 16.5,27.7 16.5,28.5 C16.5,29.3 17.2,30 18,30 L19,30 L19,32.1 C15,32.8 11.9,35.9 11.3,39.8 L1.5,39.8 C0.7,39.8 0,40.5 0,41.3 L0,51.3 C0,52.1 0.7,52.8 1.5,52.8 L5,52.8 L5,81.3 C5,82.1 5.7,82.8 6.5,82.8 L76.5,82.8 C77.3,82.8 78,82.1 78,81.3 L78,52.8 L81.5,52.8 C82.3,52.8 83,52.1 83,51.3 L83,41.3 C83,40.5 82.3,39.8 81.5,39.8 Z M53.4,28.7 C60.2,28.7 66.3,33.2 68.2,39.8 L38.6,39.8 C40.5,33.2 46.6,28.7 53.4,28.7 Z M20.4,34.9 C23.3,34.9 25.9,36.9 26.6,39.8 L14.3,39.8 C15,37 17.5,34.9 20.4,34.9 Z M75,79.8 L8,79.8 L8,52.8 L75,52.8 L75,79.8 Z M80,49.8 L3,49.8 L3,42.8 L80,42.8 L80,49.8 Z" id="Shape" fill="#009FDF"></path>
                <path d="M53.4,24.7 C59.7,24.7 64.8,19.6 64.9,13.3 C64.9,13.1 64.9,12.9 64.9,12.8 L64.9,12.8 C64.9,11.9 64.7,11 64.5,10.2 L63.7,5.6 C63.3,3.6 61.9,1.9 59.9,1.3 L57.6,0.6 C54.9,-0.2 52,-0.2 49.3,0.6 L47,1.3 C45,1.9 43.6,3.6 43.2,5.6 L42.3,10.6 C42.1,11.2 42,11.8 42,12.5 L42,12.7 C42,12.8 42,13 42,13.2 C42,13.3 42,13.5 42,13.6 C42.1,19.6 47.1,24.7 53.4,24.7 Z M46.2,5.9 C46.4,5 47,4.2 47.9,4 L50.2,3.3 C52.3,2.6 54.6,2.6 56.7,3.3 L58.9,4 C59.8,4.3 60.4,5 60.6,5.9 L61.5,11.1 L45.3,11.1 L46.2,5.9 Z M61.8,14.1 C61.3,18.7 57.2,22.1 52.5,21.6 C48.5,21.2 45.4,18 45,14.1 L61.8,14.1 Z" id="Shape" fill="#D0021B"></path>
            </g>
        </g>
    </g>
</svg>