<?xml version="1.0" encoding="UTF-8"?>
<svg width="544px" height="543px" viewBox="0 0 544 543" version="1.1" xmlns="http://www.w3.org/2000/svg" xmlns:xlink="http://www.w3.org/1999/xlink">
    <title>noun-milk-3088225</title>
    <g id="Page-1" stroke="none" stroke-width="1" fill="none" fill-rule="evenodd">
        <g id="Artboard" transform="translate(-1311.000000, -1059.000000)" fill-rule="nonzero">
            <g id="noun-milk-3088225" transform="translate(1311.582320, 1059.000000)">
                <path d="M290.14668,289.14288 C299.10758,279.88508 299.23648,270.10388 298.40838,264.81888 C295.81068,248.27988 278.09238,234.91288 260.52938,236.35388 C255.75208,236.72107 244.31438,238.97888 236.24838,251.47488 C228.17028,238.99088 216.74438,236.73288 211.96738,236.35388 C194.41638,234.93588 176.68638,248.27988 174.08838,264.81888 C173.25635,270.10408 173.38916,279.88488 182.35788,289.14288 C166.98288,294.45538 161.33088,306.13488 159.58088,311.10388 C153.56918,328.15088 160.83088,347.81088 175.77588,354.93188 C181.02588,357.43578 191.38488,360.22488 204.53788,353.04908 C202.90898,372.59608 212.19408,382.86108 216.35788,386.42008 C222.11568,391.33808 229.18588,393.80678 236.24888,393.80678 C243.31188,393.80678 250.38188,391.34978 256.13988,386.42008 C260.31178,382.85758 269.58888,372.59608 267.95988,353.05708 C281.11188,360.21328 291.47188,357.43208 296.72188,354.93988 C311.66688,347.82658 318.92888,328.15488 312.91688,311.11188 C311.16688,306.13528 305.52238,294.45188 290.14688,289.14288 L290.14668,289.14288 Z M261.89268,253.79888 C270.38098,253.16997 279.92768,259.93948 281.11568,267.52888 C282.37738,275.55228 272.44378,283.25188 255.11968,288.09088 C252.38918,285.25498 249.02198,283.08698 245.26028,281.69638 C246.50248,264.61438 252.40088,254.54438 261.89328,253.79838 L261.89268,253.79888 Z M227.49768,306.25588 C227.49768,301.43558 231.42738,297.50588 236.24768,297.50588 C241.06798,297.50588 244.99768,301.43558 244.99768,306.25588 C244.99768,311.07618 241.06798,315.00588 236.24768,315.00588 C231.42738,315.00588 227.49768,311.07618 227.49768,306.25588 Z M210.60268,253.79888 C220.09488,254.54107 225.99368,264.61488 227.23568,281.70088 C223.47398,283.09148 220.10288,285.25168 217.37628,288.09538 C200.05228,283.25558 190.11828,275.55638 191.38028,267.53338 C192.56778,259.94358 202.11428,253.18538 210.60328,253.79938 L210.60268,253.79888 Z M183.30168,339.13088 C176.55558,335.91998 173.10668,325.33388 176.08288,316.92388 C179.84458,306.24788 192.11388,302.00588 210.14488,304.81488 C210.117536,305.30316 209.99644,305.768 209.99644,306.25628 C209.99644,311.42818 211.54334,316.22108 214.14484,320.29128 C200.85984,338.40428 189.73084,342.21728 183.30084,339.13128 L183.30168,339.13088 Z M244.77068,373.11488 C239.83708,377.33368 232.66168,377.33368 227.72368,373.11488 C221.21198,367.56018 218.49318,353.56788 229.14948,331.40388 C231.41898,332.05232 233.77058,332.50548 236.24718,332.50548 C238.72378,332.50548 241.07528,332.05236 243.35268,331.40388 C254.00068,353.56788 251.27848,367.55588 244.77068,373.11488 L244.77068,373.11488 Z M289.19268,339.13088 C282.76298,342.20118 271.63068,338.3965 258.35668,320.28288 C260.95048,316.22038 262.49728,311.42738 262.49728,306.25588 C262.49728,305.7676 262.37619,305.30276 262.34884,304.82228 C280.39184,302.01368 292.64984,306.26758 296.41084,316.93128 C299.37964,325.33748 295.93818,335.91928 289.19204,339.13028 L289.19268,339.13088 Z" id="Shape" fill="#D0021B"></path>
                <path d="M489.99668,0 L489.6373,0 C473.5983,0.13569 458.4693,8.60448 450.0713,22.18288 C444.7002,30.88988 442.8369,40.54188 444.6651,49.20288 C438.4229,52.05058 430.8491,49.73804 425.2471,45.50368 C405.1141,30.40168 380.4311,32.12468 359.1691,49.30058 L336.1181,26.25358 L332.497,26.25358 C311.095,26.25358 279.997,46.70258 279.997,78.75358 L279.997,82.37468 L295.188,97.56568 C261.973,102.02658 246.758,117.13168 238.942,124.95268 L11.312,343.81268 C0,355.12868 0,366.83568 0,376.25068 C0,398.80968 14.664,447.03968 55.062,487.44068 C95.46,527.84168 143.691,542.50268 166.252,542.50268 C175.6661,542.50268 187.373,542.50268 198.811,531.06468 L417.441,303.68468 C425.359,295.76668 440.48,280.53268 444.941,247.30968 L460.132,262.50068 L463.7531,262.50068 C495.8041,262.50068 516.2531,231.40268 516.2531,210.00068 L516.2531,206.37958 L493.2061,183.33258 C510.3741,162.07858 512.1041,137.38758 496.9873,117.22758 C492.7685,111.65338 490.4756,104.07558 493.3037,97.83658 C501.9678,99.65688 511.6157,97.809236 520.3237,92.43038 C533.9017,84.03588 542.3827,68.89938 542.5037,52.50038 L542.5037,52.30897 L542.5037,52.141 C542.33573,21.536 520.9607,0.168 490.0037,0 L489.99668,0 Z M404.93768,291.44288 L186.30768,518.82288 C180.12408,525.01038 174.29568,525.01038 166.24568,525.01038 C147.34768,525.01038 103.81568,511.45538 67.43368,475.07238 C31.05168,438.68938 17.49568,395.15838 17.49568,376.26038 C17.49568,368.20958 17.49568,362.38138 23.55818,356.31938 L251.17818,137.44938 C259.20158,129.42598 273.99818,114.74238 311.45518,113.85138 L428.65518,231.05138 C427.76065,268.50838 413.06918,283.30538 404.93218,291.45338 L404.93768,291.44288 Z M467.17568,244.81388 L297.68568,75.32388 C299.70518,57.41388 317.21668,45.94888 329.15068,44.03488 L498.46068,213.34488 C496.54658,225.27888 485.08168,242.78588 467.17168,244.80988 L467.17568,244.81388 Z M511.10968,77.54388 C505.09018,81.26268 498.65668,82.06728 493.90668,79.68058 L488.26218,76.86418 L483.80128,81.32508 C471.75428,93.37208 471.41828,112.48508 482.98878,127.76308 C495.72678,144.75508 488.32468,160.99708 480.80128,170.95408 L371.55128,61.69408 C381.50828,54.17068 397.75828,46.76808 414.70728,59.47928 C430.01228,71.06528 449.12128,70.74928 461.18028,58.69022 L465.64118,54.22932 L462.82478,48.58482 C460.44588,43.82312 461.24278,37.39382 464.96148,31.38182 C469.07868,24.70992 477.77748,17.56982 490.19548,17.50682 C511.27348,17.592758 524.90648,31.22582 524.99248,52.66282 C524.92998,64.72182 517.78938,73.42082 511.10548,77.54182 L511.10968,77.54388 Z" id="Shape" fill="#009FDF"></path>
            </g>
        </g>
    </g>
</svg>