<?xml version="1.0" encoding="UTF-8"?>
<svg width="560px" height="560px" viewBox="0 0 560 560" version="1.1" xmlns="http://www.w3.org/2000/svg" xmlns:xlink="http://www.w3.org/1999/xlink">
    <title>heirat</title>
    <g id="Page-1" stroke="none" stroke-width="1" fill="none" fill-rule="evenodd">
        <g id="Artboard" transform="translate(-2226.000000, -941.000000)">
            <g id="heirat" transform="translate(2226.000000, 941.000000)">
                <g id="Group" transform="translate(186.572094, 0.000000)">
                    <path d="M54.706906,0 C40.741906,0 26.659906,5.355594 15.999906,15.871094 L15.996,15.875 C-5.332,36.922 -5.332,71.844 15.996,92.891 C15.999906,92.891 15.999906,92.894907 16.003812,92.894907 L27.593812,104.320907 L81.866812,157.886907 L81.862906,157.886907 C84.944906,160.926007 89.101206,162.633007 93.428906,162.633007 C97.760906,162.633007 101.917206,160.929907 104.998906,157.886907 L159.283906,104.320907 L170.873906,92.894907 C170.873906,92.894907 170.877812,92.891 170.877812,92.891 C192.205812,71.844 192.205812,36.922 170.877812,15.875 C149.549812,-5.172 114.783812,-5.172 93.455812,15.875 L93.43628,15.894532 L93.416749,15.875 C82.752749,5.352 68.666749,0 54.705749,0 L54.706906,0 Z" id="Path" fill="#D0021B"></path>
                    <path d="M132.167906,32.847988 C137.769506,32.847988 143.370906,35.008294 147.741906,39.320794 C156.488006,47.949694 156.488006,60.812794 147.741906,69.441794 L136.155906,80.863794 L136.155906,80.8677 C136.152,80.8677 136.152,80.871606 136.148094,80.871606 L93.429094,123.023606 L50.722094,80.871606 L50.726001,80.871606 C50.722094,80.871606 50.722094,80.8677 50.718188,80.8677 L39.132188,69.4457 C30.386088,60.8168 30.386088,47.9577 39.128281,39.3247 C43.499381,35.0122 49.042381,32.9458 54.702281,32.9458 C60.366381,32.9458 65.905281,35.0122 70.276281,39.3247 L81.854281,50.7507 L81.862094,50.746794 C84.944094,53.789794 89.096494,55.492894 93.424094,55.496794 C97.752194,55.496794 101.908494,53.793694 104.990094,50.754594 L116.580094,39.324594 L116.584,39.324594 C116.587906,39.324594 116.587906,39.324594 116.591812,39.320688 C120.966812,35.008188 126.564512,32.847988 132.165812,32.847988 L132.167906,32.847988 Z" id="Path" fill="#FFFFFF" fill-rule="nonzero"></path>
                </g>
                <path d="M195.69,168.488094 C87.81,168.488094 0,256.328094 0,364.238094 C0,472.148094 87.805,559.988094 195.69,559.988094 C224.901,559.988094 253.698,553.425594 279.999,540.863094 C306.296,553.425094 335.097,559.988094 364.311,559.988094 C472.191,559.988094 560.001,472.148094 560.001,364.238094 C560.001,256.328094 472.196,168.488094 364.311,168.488094 C335.096,168.488094 306.299,175.050594 279.999,187.613094 C254.452,175.359094 225.858,168.484094 195.69,168.484094 L195.69,168.488094 Z M195.69,201.425869 C245.956,201.425869 290.792,224.070094 320.62,259.741094 L320.62,259.737187 C321.02234,260.291877 321.45984,260.819187 321.9286,261.319187 C344.7646,289.342187 358.4446,325.147187 358.4446,364.239187 C358.4446,398.313187 347.7566,431.423187 328.0466,458.981187 C319.0896,455.551487 310.6756,450.863987 303.0466,445.079187 C320.4916,421.903187 330.0816,393.556187 330.0816,364.243187 C330.0816,329.126187 316.3316,295.391187 291.7806,270.282187 C274.8626,252.981187 253.5856,240.567187 230.1986,234.352187 L230.1986,234.356094 C230.179069,234.348281 230.159538,234.344375 230.140006,234.340469 C218.906006,231.359969 207.331006,229.852169 195.706006,229.852169 C121.686006,229.852169 61.326006,290.215169 61.326006,364.242169 C61.326006,438.269169 121.681006,498.632169 195.706006,498.632169 C203.854406,498.632169 211.976006,497.874359 219.976006,496.401669 C227.647906,504.784469 236.027006,512.471669 245.011006,519.385669 C229.120006,524.440369 212.491006,527.045869 195.699006,527.045869 C105.625006,527.045869 32.949006,454.346869 32.949006,364.235869 C32.949006,274.118869 105.621006,201.425869 195.699006,201.425869 L195.69,201.425869 Z M364.31,201.433 C454.384,201.433 527.06,274.128 527.06,364.243 C527.06,454.36 454.384,527.053 364.31,527.053 C337.583,527.053 311.271,520.4671 287.689,507.881 C268.841,497.819 252.158,484.143 238.591,467.635 C214.65,438.498 201.56,401.959 201.56,364.245 C201.56,330.171 212.244,297.061 231.958,269.499 C240.9189,272.9287 249.341,277.6123 256.974,283.401 C239.521,306.577 229.931,334.928 229.931,364.249 C229.931,399.323 243.65,433.022 268.146,458.124 C285.033,475.425 306.279,487.858 329.642,494.093 L329.645906,494.089094 L329.653719,494.089094 C329.778719,494.128156 329.966219,494.151594 330.091219,494.214094 L330.087313,494.214094 C330.571683,494.358624 331.059973,494.483624 331.552113,494.585184 C342.263113,497.272684 353.267113,498.655484 364.322113,498.655484 C438.342113,498.655484 498.702113,438.288484 498.702113,364.265484 C498.702113,290.238484 438.347113,229.875484 364.322113,229.875484 C356.134613,229.875484 347.970113,230.633294 339.931113,232.121584 C332.270913,223.762184 323.896113,216.074584 314.904113,209.144584 C330.826113,204.070384 347.490113,201.453184 364.322113,201.453184 L364.31,201.433 Z M195.7,262.791062 C196.1375,262.791062 196.53594,262.807625 196.9578,262.811531 C178.5238,293.249531 168.6258,328.303531 168.6258,364.241531 C168.6258,400.179531 178.5242,435.233531 196.9578,465.671531 C196.5203,465.675437 196.12186,465.691062 195.7078,465.691062 C139.4928,465.691062 94.2678,420.464062 94.2678,364.241062 C94.2678,308.014062 139.4868,262.791062 195.6978,262.791062 L195.7,262.791062 Z M364.31,262.792 C420.525,262.792 465.75,308.019 465.75,364.242 C465.75,420.469 420.527,465.692 364.31,465.692 C363.8725,465.692 363.46234,465.676376 363.0444,465.672469 C381.4824,435.234469 391.3764,400.176469 391.3764,364.232469 C391.3764,327.134469 380.9974,292.408469 362.9974,262.802469 C363.4349,262.798563 363.86849,262.782938 364.3099,262.782938 L364.31,262.792 Z M280.005,307.839 C291.095,324.417 297.134,344.019 297.134,364.245 C297.134,384.472 291.0949,404.073 280.005,420.651 C268.915,404.073 262.876,384.471 262.876,364.249 C262.876,344.022 268.9151,324.421 280.009,307.843 L280.005,307.839 Z" id="Shape" fill="#009FDF" fill-rule="nonzero"></path>
            </g>
        </g>
    </g>
</svg>