<svg width="25" height="25" fill="none" xmlns="http://www.w3.org/2000/svg"><g clip-path="url(#clip0)" fill-rule="evenodd" clip-rule="evenodd" fill="#ffffff"><path d="M3.91 13.722c.432 0 .781.35.781.781v7.813H9.38v-5.47a2.344 2.344 0 012.344-2.343h1.562a2.343 2.343 0 012.344 2.344v5.469h4.687v-7.813a.781.781 0 011.563 0v8.594c0 .431-.35.781-.781.781h-6.25a.781.781 0 01-.782-.781v-6.25a.781.781 0 00-.78-.781h-1.563a.781.781 0 00-.782.78v6.25c0 .432-.35.782-.78.782H3.91a.781.781 0 01-.782-.781v-8.594c0-.431.35-.781.781-.781z"/><path d="M12.504 2.65a.781.781 0 00-.552.23L1.338 13.493a.781.781 0 01-1.105-1.105L10.847 1.775a2.344 2.344 0 013.315 0l10.613 10.613a.781.781 0 11-1.105 1.105L13.057 2.88a.781.781 0 00-.553-.23z"/><path d="M16.41 4.347c0-.432.35-.781.781-.781h3.907c.431 0 .78.35.78.78v5.47a.781.781 0 01-1.562 0V5.128h-2.343v.781a.781.781 0 01-1.563 0V4.347z"/></g><defs><clipPath id="clip0"><path fill="#fff" d="M0 0h25v25H0z"/></clipPath></defs></svg>
