<svg width="72" height="72" viewBox="0 0 72 72" fill="none" xmlns="http://www.w3.org/2000/svg">
<path fill-rule="evenodd" clip-rule="evenodd" d="M11.1923 11.1952C17.7717 4.61578 26.6953 0.919525 36 0.919525C45.3047 0.919525 54.2283 4.61577 60.8077 11.1952C67.3871 17.7746 71.0833 26.6982 71.0833 36.0029C71.0833 45.3076 67.3871 54.2312 60.8077 60.8106C54.2283 67.3901 45.3047 71.0862 36 71.0862C26.6953 71.0862 17.7718 67.3901 11.1923 60.8106C4.61294 54.2312 0.916656 45.3076 0.916656 36.0029C0.916656 26.6982 4.61294 17.7746 11.1923 11.1952ZM36 6.91953C28.2866 6.91953 20.8892 9.98364 15.435 15.4378C9.9808 20.892 6.91666 28.2895 6.91666 36.0029C6.91666 43.7164 9.9808 51.1138 15.435 56.568C20.8892 62.0222 28.2866 65.0862 36 65.0862C43.7134 65.0862 51.1109 62.0222 56.5651 56.568C62.0192 51.1138 65.0833 43.7164 65.0833 36.0029C65.0833 28.2895 62.0192 20.892 56.5651 15.4378C51.1109 9.98364 43.7134 6.91953 36 6.91953Z" fill="#404040"/>
<path fill-rule="evenodd" clip-rule="evenodd" d="M27.1667 31C27.1667 29.3431 28.5098 28 30.1667 28H34.5417C35.7241 28 36.8579 28.4697 37.694 29.3055L37.6951 29.3066C38.53 30.1422 39 31.2756 39 32.4583V51.3334H43.2917C44.9485 51.3334 46.2917 52.6765 46.2917 54.3334C46.2917 55.9902 44.9485 57.3334 43.2917 57.3334H38.9167C37.3474 57.3334 35.8424 56.7098 34.733 55.6004C33.6236 54.491 33 52.986 33 51.4167V34H30.1667C28.5098 34 27.1667 32.6569 27.1667 31Z" fill="#404040"/>
<path d="M34.9999 16C34.2095 16 33.435 16.2346 32.7774 16.6741C32.1198 17.1136 31.6078 17.7384 31.3038 18.4693C31.0014 19.2002 30.923 20.0045 31.0766 20.7803C31.2318 21.5563 31.6126 22.269 32.171 22.8285C32.731 23.3878 33.443 23.7688 34.2191 23.9232C34.9951 24.0774 35.7999 23.9982 36.5311 23.6955C37.2624 23.3928 37.8864 22.88 38.3264 22.2222C38.7664 21.5645 39 20.7912 39 20C39 18.9392 38.5792 17.9218 37.8288 17.1715C37.0783 16.4214 36.0607 16 34.9999 16Z" fill="#404040"/>
</svg>
