<svg xmlns="http://www.w3.org/2000/svg" viewBox="0 0 172 35"><path d="M8.98 34.64l-5.84-9.32v9.32H0V20.46h3.84l5.32 8.62v-8.62h3.16v14.18zm5.54-2.74a2.889 2.889 0 01.23-1.18 2.665 2.665 0 01.63-.89 3.278 3.278 0 01.93-.6 4.8 4.8 0 011.15-.33l2.34-.36a.914.914 0 00.56-.24.639.639 0 00.16-.44.975.975 0 00-.37-.76 1.624 1.624 0 00-1.09-.32 1.621 1.621 0 00-1.23.45 1.6 1.6 0 00-.47 1.01l-2.64-.54a3.108 3.108 0 01.32-1.12 3.461 3.461 0 01.81-1.06 4.384 4.384 0 011.33-.8 5.106 5.106 0 011.9-.32 5.917 5.917 0 012.04.31 3.729 3.729 0 011.37.84 3.077 3.077 0 01.76 1.23 4.647 4.647 0 01.23 1.46v4.86a9.147 9.147 0 00.05 1.02q.05.44.07.52h-2.74a2.838 2.838 0 01-.06-.33 5.81 5.81 0 01-.04-.79 2.9 2.9 0 01-1.1 1.02 3.52 3.52 0 01-1.7.38 3.99 3.99 0 01-1.46-.25 3.26 3.26 0 01-1.08-.67 2.875 2.875 0 01-.67-.96 2.879 2.879 0 01-.23-1.14zm4.18.82a2.535 2.535 0 00.67-.09 1.381 1.381 0 00.58-.32 1.721 1.721 0 00.41-.61 2.488 2.488 0 00.16-.96v-.44l-1.88.3a1.74 1.74 0 00-.8.33.916.916 0 00-.32.77 1.05 1.05 0 00.27.71 1.154 1.154 0 00.91.31zM15.4 22a1.5 1.5 0 01.44-1.09 1.452 1.452 0 011.08-.45 1.485 1.485 0 011.09.45 1.485 1.485 0 01.45 1.09 1.452 1.452 0 01-.45 1.08 1.5 1.5 0 01-1.09.44 1.468 1.468 0 01-1.08-.44A1.468 1.468 0 0115.4 22zm4.42 0a1.5 1.5 0 01.44-1.09 1.452 1.452 0 011.08-.45 1.485 1.485 0 011.09.45 1.485 1.485 0 01.45 1.09 1.452 1.452 0 01-.45 1.08 1.5 1.5 0 01-1.09.44 1.468 1.468 0 01-1.08-.44 1.468 1.468 0 01-.44-1.08zM29 34.64h-3.04V20.16H29v5.18a2.787 2.787 0 011.17-.68 4.622 4.622 0 011.37-.22 4.2 4.2 0 011.69.31 3.18 3.18 0 011.17.85 3.491 3.491 0 01.68 1.26 5.244 5.244 0 01.22 1.54v6.24h-3.04v-5.72a1.913 1.913 0 00-.39-1.23 1.477 1.477 0 00-1.23-.49 1.549 1.549 0 00-1.16.45A1.725 1.725 0 0029 28.8zm15.2-6.16a2.125 2.125 0 00-.13-.58 1.478 1.478 0 00-.35-.54 1.939 1.939 0 00-.61-.4 2.293 2.293 0 00-.91-.16 2.053 2.053 0 00-.84.16 2.1 2.1 0 00-.61.4 1.659 1.659 0 00-.38.54 1.778 1.778 0 00-.15.58zm2.76 3.3A4.382 4.382 0 0146.4 33a3.94 3.94 0 01-.96 1.01 4.667 4.667 0 01-1.35.68 5.517 5.517 0 01-1.71.25 5.434 5.434 0 01-1.96-.36 4.994 4.994 0 01-1.66-1.04 4.911 4.911 0 01-1.14-1.66 5.64 5.64 0 01-.42-2.24 5.522 5.522 0 01.41-2.17 5.04 5.04 0 011.1-1.65 4.9 4.9 0 011.59-1.05 4.847 4.847 0 011.86-.37 4.911 4.911 0 013.65 1.34 5.106 5.106 0 011.33 3.76q0 .32-.02.61a1.585 1.585 0 01-.04.33h-6.92a1.768 1.768 0 00.21.77 2.094 2.094 0 00.5.61 2.251 2.251 0 00.71.4 2.524 2.524 0 00.84.14 2.11 2.11 0 001.31-.36 2.091 2.091 0 00.69-.94zm10.36-7.08h1.94v2.66h-1.94v3.72a.955.955 0 00.3.83 1.37 1.37 0 00.8.21 3.186 3.186 0 00.45-.03 2.686 2.686 0 00.35-.07v2.52q-.1.04-.48.16a3.856 3.856 0 01-1.1.12 3.366 3.366 0 01-2.44-.85 3.114 3.114 0 01-.88-2.35v-4.26h-1.76V24.7h.5a1.418 1.418 0 001.16-.46 1.761 1.761 0 00.38-1.16V21.8h2.72zm10.32 3a3.53 3.53 0 00-.5-.08q-.24-.02-.46-.02a2.764 2.764 0 00-.88.14 1.871 1.871 0 00-.74.46 2.267 2.267 0 00-.51.84 3.686 3.686 0 00-.19 1.26v4.34h-3.04V24.7h2.94v1.34a2.208 2.208 0 01.51-.7 2.53 2.53 0 01.67-.44 3.307 3.307 0 01.73-.23 3.635 3.635 0 01.67-.07 2.85 2.85 0 01.8.1zm1.7 6.94V24.7h3.04v9.94zm-.26-12.98a1.749 1.749 0 01.14-.69 1.779 1.779 0 01.38-.57 1.81 1.81 0 01.56-.38 1.678 1.678 0 01.68-.14 1.74 1.74 0 011.28.52 1.716 1.716 0 01.52 1.26 1.716 1.716 0 01-.52 1.26 1.74 1.74 0 01-1.28.52 1.678 1.678 0 01-.68-.14 1.81 1.81 0 01-.56-.38 1.779 1.779 0 01-.38-.57 1.749 1.749 0 01-.14-.69zm16.36 5.6v7.38H82.4v-7.38h-3.5v7.38h-3.04v-7.38h-1.58V24.7h1.58v-.86a4.613 4.613 0 01.25-1.56 3.347 3.347 0 01.74-1.21 3.334 3.334 0 011.2-.79 4.36 4.36 0 011.61-.28 5.664 5.664 0 01.8.06 2.455 2.455 0 01.64.16v2.48a1.977 1.977 0 00-.34-.07 4.28 4.28 0 00-.56-.03 2.03 2.03 0 00-.43.05 1.091 1.091 0 00-.42.19 1.131 1.131 0 00-.32.38 1.3 1.3 0 00-.13.62v.86h3.5v-.86a4.613 4.613 0 01.25-1.56 3.347 3.347 0 01.74-1.21 3.352 3.352 0 011.19-.79 4.282 4.282 0 011.6-.28 6.936 6.936 0 01.82.05 2.258 2.258 0 01.64.15v2.5a1.977 1.977 0 00-.34-.07 4.28 4.28 0 00-.56-.03 2.03 2.03 0 00-.43.05 1.091 1.091 0 00-.42.19 1.131 1.131 0 00-.32.38 1.3 1.3 0 00-.13.62v.86h2.16v2.56zm7.68-2.56h1.94v2.66h-1.94v3.72a.955.955 0 00.3.83 1.37 1.37 0 00.8.21 3.186 3.186 0 00.45-.03 2.686 2.686 0 00.35-.07v2.52q-.1.04-.48.16a3.856 3.856 0 01-1.1.12 3.366 3.366 0 01-2.44-.85 3.114 3.114 0 01-.88-2.35v-4.26h-1.76V24.7h.5a1.418 1.418 0 001.16-.46 1.761 1.761 0 00.38-1.16V21.8h2.72zm8.96 9.94V20.46h9.14v3h-5.98v3h5.26v2.88h-5.24v5.3zm17-6.94a3.53 3.53 0 00-.5-.08q-.24-.02-.46-.02a2.764 2.764 0 00-.88.14 1.871 1.871 0 00-.74.46 2.267 2.267 0 00-.51.84 3.686 3.686 0 00-.19 1.26v4.34h-3.04V24.7h2.94v1.34a2.208 2.208 0 01.51-.7 2.53 2.53 0 01.67-.44 3.307 3.307 0 01.73-.23 3.635 3.635 0 01.67-.07 2.85 2.85 0 01.8.1zm8.04.78a2.125 2.125 0 00-.13-.58 1.478 1.478 0 00-.35-.54 1.939 1.939 0 00-.61-.4 2.293 2.293 0 00-.91-.16 2.053 2.053 0 00-.84.16 2.1 2.1 0 00-.61.4 1.659 1.659 0 00-.38.54 1.778 1.778 0 00-.15.58zm2.76 3.3a4.382 4.382 0 01-.56 1.22 3.941 3.941 0 01-.96 1.01 4.667 4.667 0 01-1.35.68 5.517 5.517 0 01-1.71.25 5.434 5.434 0 01-1.96-.36 4.994 4.994 0 01-1.66-1.04 4.911 4.911 0 01-1.14-1.66 5.64 5.64 0 01-.42-2.24 5.522 5.522 0 01.41-2.17 5.04 5.04 0 011.1-1.65 4.9 4.9 0 011.59-1.05 4.847 4.847 0 011.86-.37 4.911 4.911 0 013.65 1.34 5.106 5.106 0 011.33 3.76q0 .32-.02.61a1.587 1.587 0 01-.04.33h-6.92a1.768 1.768 0 00.21.77 2.094 2.094 0 00.5.61 2.251 2.251 0 00.71.4 2.524 2.524 0 00.84.14 2.11 2.11 0 001.31-.36 2.091 2.091 0 00.69-.94zm2.2 2.86V24.7h3.04v9.94zm-.26-12.98a1.749 1.749 0 01.14-.69 1.779 1.779 0 01.38-.57 1.81 1.81 0 01.56-.38 1.678 1.678 0 01.68-.14 1.74 1.74 0 011.28.52 1.716 1.716 0 01.52 1.26 1.716 1.716 0 01-.52 1.26 1.74 1.74 0 01-1.28.52 1.678 1.678 0 01-.68-.14 1.81 1.81 0 01-.56-.38 1.779 1.779 0 01-.38-.57 1.749 1.749 0 01-.14-.69zm8.9 12.98h-3.04V20.16h3.04v5.18a2.787 2.787 0 011.17-.68 4.622 4.622 0 011.37-.22 4.2 4.2 0 011.69.31 3.18 3.18 0 011.17.85 3.491 3.491 0 01.68 1.26 5.244 5.244 0 01.22 1.54v6.24h-3.04v-5.72a1.913 1.913 0 00-.39-1.23 1.477 1.477 0 00-1.23-.49 1.549 1.549 0 00-1.16.45 1.725 1.725 0 00-.48 1.15zm15.2-6.16a2.125 2.125 0 00-.13-.58 1.478 1.478 0 00-.35-.54 1.939 1.939 0 00-.61-.4 2.293 2.293 0 00-.91-.16 2.053 2.053 0 00-.84.16 2.1 2.1 0 00-.61.4 1.659 1.659 0 00-.38.54 1.778 1.778 0 00-.15.58zm2.76 3.3a4.382 4.382 0 01-.56 1.22 3.941 3.941 0 01-.96 1.01 4.667 4.667 0 01-1.35.68 5.517 5.517 0 01-1.71.25 5.434 5.434 0 01-1.96-.36 4.994 4.994 0 01-1.66-1.04 4.911 4.911 0 01-1.14-1.66 5.64 5.64 0 01-.42-2.24 5.522 5.522 0 01.41-2.17 5.039 5.039 0 011.1-1.65 4.9 4.9 0 011.59-1.05 4.847 4.847 0 011.86-.37 4.911 4.911 0 013.65 1.34 5.106 5.106 0 011.33 3.76q0 .32-.02.61a1.587 1.587 0 01-.04.33h-6.92a1.768 1.768 0 00.21.77 2.094 2.094 0 00.5.61 2.251 2.251 0 00.71.4 2.524 2.524 0 00.84.14 2.11 2.11 0 001.31-.36 2.091 2.091 0 00.69-.94zm2.2 2.86V24.7h3.04v9.94zm-.26-12.98a1.749 1.749 0 01.14-.69 1.779 1.779 0 01.38-.57 1.81 1.81 0 01.56-.38 1.678 1.678 0 01.68-.14 1.74 1.74 0 011.28.52 1.716 1.716 0 01.52 1.26 1.716 1.716 0 01-.52 1.26 1.74 1.74 0 01-1.28.52 1.678 1.678 0 01-.68-.14 1.81 1.81 0 01-.56-.38 1.779 1.779 0 01-.38-.57 1.749 1.749 0 01-.14-.69zm9.74 3.04h1.94v2.66h-1.94v3.72a.955.955 0 00.3.83 1.37 1.37 0 00.8.21 3.186 3.186 0 00.45-.03 2.686 2.686 0 00.35-.07v2.52q-.1.04-.48.16a3.856 3.856 0 01-1.1.12 3.366 3.366 0 01-2.44-.85 3.114 3.114 0 01-.88-2.35v-4.26h-1.76V24.7h.5a1.418 1.418 0 001.16-.46 1.761 1.761 0 00.38-1.16V21.8h2.72z" fill="#009fdf"/><path d="M5 11.66a4.839 4.839 0 001.54-.24 3.425 3.425 0 001.26-.74 3.446 3.446 0 00.85-1.28 4.969 4.969 0 00.31-1.84 4.969 4.969 0 00-.31-1.84 3.542 3.542 0 00-.85-1.29 3.358 3.358 0 00-1.26-.75A4.839 4.839 0 005 3.44H3.16v8.22zm-5 2.98V.46h5.14a8.251 8.251 0 012.91.49 6.354 6.354 0 012.25 1.41 6.226 6.226 0 011.45 2.24 8.158 8.158 0 01.51 2.96 8.077 8.077 0 01-.51 2.95 6.243 6.243 0 01-1.45 2.23 6.338 6.338 0 01-2.26 1.41 8.334 8.334 0 01-2.92.49zM15.28 2a1.5 1.5 0 01.44-1.09A1.452 1.452 0 0116.8.46a1.485 1.485 0 011.09.45A1.485 1.485 0 0118.34 2a1.452 1.452 0 01-.45 1.08 1.5 1.5 0 01-1.09.44 1.468 1.468 0 01-1.08-.44A1.468 1.468 0 0115.28 2zm4.42 0a1.5 1.5 0 01.44-1.09 1.452 1.452 0 011.08-.45 1.485 1.485 0 011.09.45A1.485 1.485 0 0122.76 2a1.452 1.452 0 01-.45 1.08 1.5 1.5 0 01-1.09.44 1.468 1.468 0 01-1.08-.44A1.468 1.468 0 0119.7 2zm1.08 12.64a2.465 2.465 0 01-.06-.47q-.02-.33-.02-.53a2.283 2.283 0 01-1.15.93 4.158 4.158 0 01-1.51.29 3.986 3.986 0 01-1.61-.31 3.434 3.434 0 01-1.19-.84 3.63 3.63 0 01-.73-1.23 4.427 4.427 0 01-.25-1.5V4.7h3.04v5.64a1.923 1.923 0 00.39 1.22 1.439 1.439 0 001.21.5 1.6 1.6 0 001.21-.47 1.7 1.7 0 00.45-1.23V4.7h3.04v8.16q0 .68.04 1.17t.06.61zm7.38-3.28a1.534 1.534 0 00.41.93 1.475 1.475 0 001.15.41 1.268 1.268 0 00.87-.26.786.786 0 00.29-.6.672.672 0 00-.21-.49 1.573 1.573 0 00-.77-.33l-1.14-.26a5.389 5.389 0 01-1.36-.48 3.349 3.349 0 01-.92-.7 2.48 2.48 0 01-.52-.88 3.141 3.141 0 01-.16-1 2.99 2.99 0 01.28-1.28 3.185 3.185 0 01.79-1.05 3.815 3.815 0 011.21-.71 4.392 4.392 0 011.54-.26 4.858 4.858 0 011.82.3 3.78 3.78 0 011.21.75 2.961 2.961 0 01.69.96 3.135 3.135 0 01.26.95l-2.52.46a1.506 1.506 0 00-.39-.86 1.333 1.333 0 00-1.03-.36 1.268 1.268 0 00-.76.23.734.734 0 00-.32.63.61.61 0 00.22.5 1.2 1.2 0 00.56.24l1.32.26a4.069 4.069 0 012.31 1.17 2.862 2.862 0 01.75 1.95 3.31 3.31 0 01-.24 1.24 2.976 2.976 0 01-.74 1.07 3.822 3.822 0 01-1.24.76 4.757 4.757 0 01-1.74.29 5.131 5.131 0 01-1.97-.33 3.893 3.893 0 01-1.27-.81 3.25 3.25 0 01-.71-1.02 2.846 2.846 0 01-.25-.96zm9.6 0a1.534 1.534 0 00.41.93 1.475 1.475 0 001.15.41 1.268 1.268 0 00.87-.26.786.786 0 00.29-.6.672.672 0 00-.21-.49 1.573 1.573 0 00-.77-.33l-1.14-.26a5.389 5.389 0 01-1.36-.48 3.349 3.349 0 01-.92-.7 2.48 2.48 0 01-.52-.88 3.141 3.141 0 01-.16-1 2.99 2.99 0 01.28-1.28 3.185 3.185 0 01.79-1.05 3.815 3.815 0 011.21-.71 4.392 4.392 0 011.54-.26 4.858 4.858 0 011.82.3 3.78 3.78 0 011.21.75 2.961 2.961 0 01.69.96 3.135 3.135 0 01.26.95l-2.52.46a1.506 1.506 0 00-.39-.86 1.333 1.333 0 00-1.03-.36 1.268 1.268 0 00-.76.23.734.734 0 00-.32.63.61.61 0 00.22.5 1.2 1.2 0 00.56.24l1.32.26a4.069 4.069 0 012.31 1.17 2.862 2.862 0 01.75 1.95 3.31 3.31 0 01-.24 1.24 2.976 2.976 0 01-.74 1.07 3.822 3.822 0 01-1.24.76 4.757 4.757 0 01-1.74.29 5.131 5.131 0 01-1.97-.33 3.893 3.893 0 01-1.27-.81 3.25 3.25 0 01-.71-1.02 2.846 2.846 0 01-.25-.96zm14.06-2.88a2.125 2.125 0 00-.13-.58 1.478 1.478 0 00-.35-.54 1.939 1.939 0 00-.61-.4 2.293 2.293 0 00-.91-.16 2.053 2.053 0 00-.84.16 2.1 2.1 0 00-.61.4 1.659 1.659 0 00-.38.54 1.778 1.778 0 00-.15.58zm2.76 3.3a4.382 4.382 0 01-.56 1.22 3.941 3.941 0 01-.96 1.01 4.667 4.667 0 01-1.35.68 5.517 5.517 0 01-1.71.25 5.434 5.434 0 01-1.96-.36 4.994 4.994 0 01-1.66-1.04 4.911 4.911 0 01-1.14-1.66 5.64 5.64 0 01-.42-2.24 5.522 5.522 0 01.41-2.17 5.04 5.04 0 011.1-1.65 4.9 4.9 0 011.59-1.05 4.847 4.847 0 011.86-.37 4.911 4.911 0 013.65 1.34 5.106 5.106 0 011.33 3.76q0 .32-.02.61a1.586 1.586 0 01-.04.33h-6.92a1.768 1.768 0 00.21.77 2.094 2.094 0 00.5.61 2.251 2.251 0 00.71.4 2.524 2.524 0 00.84.14 2.11 2.11 0 001.31-.36 2.091 2.091 0 00.69-.94zm2.2 2.86V.16h3.04v14.48zm15.54-1.78q0 .68.03 1.15t.05.63h-2.92q-.02-.1-.05-.38a5.445 5.445 0 01-.03-.58 2.437 2.437 0 01-1.05.85 3.777 3.777 0 01-1.61.33 4.876 4.876 0 01-1.96-.39 4.744 4.744 0 01-1.56-1.08 4.91 4.91 0 01-1.03-1.65 5.792 5.792 0 01-.37-2.1 5.738 5.738 0 01.36-2.05 5.088 5.088 0 011-1.65 4.514 4.514 0 011.52-1.09 4.735 4.735 0 011.94-.39 4.786 4.786 0 011.1.11 4.1 4.1 0 01.78.26 1.926 1.926 0 01.51.33 2.321 2.321 0 01.29.32V.16h3zm-7.44-3.2a2.956 2.956 0 00.18 1.08 2.211 2.211 0 00.49.77 2.073 2.073 0 00.72.47 2.318 2.318 0 00.85.16 2.318 2.318 0 00.85-.16 2.073 2.073 0 00.72-.47 2.211 2.211 0 00.49-.77 2.956 2.956 0 00.18-1.08 2.956 2.956 0 00-.18-1.08 2.211 2.211 0 00-.49-.77 1.958 1.958 0 00-.72-.46 2.455 2.455 0 00-.85-.15 2.455 2.455 0 00-.85.15 1.958 1.958 0 00-.72.46 2.211 2.211 0 00-.49.77 2.956 2.956 0 00-.18 1.08zm14.74 2.48a2.372 2.372 0 00.84-.15 1.976 1.976 0 00.71-.46 2.332 2.332 0 00.5-.77 2.875 2.875 0 00.19-1.1 2.894 2.894 0 00-.19-1.09 2.2 2.2 0 00-.5-.77 2.042 2.042 0 00-.71-.45 2.372 2.372 0 00-.84-.15 2.4 2.4 0 00-.83.15 2.023 2.023 0 00-.72.45 2.2 2.2 0 00-.5.77 2.894 2.894 0 00-.19 1.09 2.894 2.894 0 00.19 1.09 2.311 2.311 0 00.5.78 1.958 1.958 0 00.72.46 2.4 2.4 0 00.83.15zm0-7.74a5.474 5.474 0 012.08.39 5.067 5.067 0 011.67 1.09 5.136 5.136 0 011.12 1.66 5.343 5.343 0 01.41 2.12 5.416 5.416 0 01-.41 2.13 5.109 5.109 0 01-1.12 1.67 5.067 5.067 0 01-1.67 1.09 5.474 5.474 0 01-2.08.39 5.474 5.474 0 01-2.08-.39 5.067 5.067 0 01-1.67-1.09 5.109 5.109 0 01-1.12-1.67 5.416 5.416 0 01-.41-2.13 5.343 5.343 0 01.41-2.12 5.136 5.136 0 011.12-1.66 5.067 5.067 0 011.67-1.09 5.474 5.474 0 012.08-.39zm13.6 3.3a3.53 3.53 0 00-.5-.08q-.24-.02-.46-.02a2.764 2.764 0 00-.88.14 1.871 1.871 0 00-.74.46 2.267 2.267 0 00-.51.84 3.686 3.686 0 00-.19 1.26v4.34H86.9V4.7h2.94v1.34a2.208 2.208 0 01.51-.7 2.53 2.53 0 01.67-.44 3.307 3.307 0 01.73-.23 3.635 3.635 0 01.67-.07 2.85 2.85 0 01.8.1zm5.66-.44v7.38h-3.04V7.26h-1.58V4.7h1.58v-.86a4.613 4.613 0 01.25-1.56 3.347 3.347 0 01.74-1.21 3.334 3.334 0 011.2-.79A4.36 4.36 0 0199.64 0a5.407 5.407 0 01.84.06 2.391 2.391 0 01.6.16V2.7a1.971 1.971 0 00-.33-.07 4.237 4.237 0 00-.57-.03 2.03 2.03 0 00-.43.05 1.02 1.02 0 00-.42.2 1.188 1.188 0 00-.32.41 1.525 1.525 0 00-.13.68v.76h2.16v2.56z" fill="#e30018"/></svg>
