<?xml version="1.0" encoding="UTF-8"?>
<svg width="299px" height="424px" viewBox="0 0 299 424" version="1.1" xmlns="http://www.w3.org/2000/svg" xmlns:xlink="http://www.w3.org/1999/xlink">
    <title>noun-passport-1453965</title>
    <g id="Page-1" stroke="none" stroke-width="1" fill="none" fill-rule="evenodd">
        <g id="Artboard" transform="translate(-3942.000000, -1284.000000)" fill-rule="nonzero">
            <g id="noun-passport-1453965" transform="translate(3942.386050, 1284.000000)">
                <path d="M295.2025,2.80514402 C293.222,0.902844019 290.5541,-0.0737559813 287.8158,0.00434401873 L9.6758,11.203344 C6.3906,11.203344 0,13.633044 0,21.273344 L0,390.873344 C0,399.404544 7.3438,400.658544 9.1797,400.912344 L259.3197,423.310344 C259.62048,423.337687 259.91736,423.349406 260.21814,423.349406 C262.72204,423.349406 265.15564,422.415816 267.02284,420.708806 C269.11264,418.802606 270.30014,416.099406 270.30014,413.275206 L270.30014,390.486206 L288.62414,389.747926 C294.02644,389.529176 298.29994,385.083826 298.29994,379.673926 L298.29994,10.073926 C298.29994,7.33172602 297.18274,4.70672602 295.20224,2.80442602 L295.2025,2.80514402 Z M278.1405,369.995144 L20.1605,380.382144 L20.1605,30.952144 L278.1405,20.565144 L278.1405,369.995144 Z M250.1405,402.249144 L165.7815,394.694444 L250.1405,391.296044 L250.1405,402.249144 Z M236.6955,317.710144 C236.89862,323.276544 232.551,327.948144 226.9885,328.151144 L72.0485,333.752744 C71.9235,333.75665 71.80241,333.75665 71.67741,333.75665 C66.27511,333.75665 61.80631,329.47935 61.61141,324.04575 C61.40829,318.47935 65.75591,313.80775 71.32231,313.60475 L226.25231,308.00315 C231.99061,307.71018 236.48631,312.14765 236.69031,317.71015 L236.6955,317.710144 Z M148.8865,70.680144 C96.7225,70.680144 53.8865,113.090144 53.8865,165.680144 C53.8865,217.844144 96.2965,260.680144 148.8865,260.680144 C201.4765,260.676238 243.8865,218.266144 243.8865,165.676144 C243.8865,113.512144 201.0505,70.680144 148.8865,70.680144 Z M148.8865,245.830144 C104.7815,245.830144 68.7305,209.783144 68.7305,165.674144 C68.7305,121.569144 104.7775,85.518144 148.8865,85.518144 C192.9915,85.518144 229.0425,121.565144 229.0425,165.674144 C229.0425,209.783144 192.9915,245.830144 148.8865,245.830144 Z" id="Shape" fill="#009FDF"></path>
                <path d="M179.4225,184.759144 C175.6061,183.485744 171.3639,185.606804 170.0905,189.848944 C170.0905,189.848944 165.4264,205.118944 151.4305,205.965944 C137.8605,206.813604 131.0755,193.242944 131.0755,192.817944 C129.3802,189.001544 124.7122,187.306244 120.8955,189.001544 C117.0788,190.696844 115.3838,195.364844 117.0791,199.181544 C117.50488,200.029204 128.5281,222.931544 152.2781,221.236544 C176.0281,219.541544 183.6611,195.791544 184.0871,194.517544 C185.7863,190.271444 183.23944,186.033144 179.423,184.759744 L179.4225,184.759144 Z" id="Path" fill="#D0021B"></path>
                <path d="M123.4415,152.529144 C125.9845,152.529144 128.5313,150.833844 129.8048,148.286944 C131.5001,144.470544 130.23058,140.228344 126.4103,138.106944 C125.56264,137.681164 118.7775,134.712444 110.2933,135.138144 C101.8128,135.563924 95.4493,139.802244 95.0233,140.227944 C91.6288,142.349044 90.7811,147.013144 92.9022,150.829944 C95.0233,154.646744 99.6874,155.072144 103.5042,152.951044 C103.5042,152.951044 107.3206,150.408044 111.5628,150.408044 C115.805,149.982264 120.0433,152.103344 120.0433,152.103344 C120.89486,152.529124 122.1683,152.951004 123.4417,152.529124 L123.4415,152.529144 Z" id="Path" fill="#D0021B"></path>
                <path d="M197.6605,133.443144 C196.81284,133.017364 190.0277,130.048644 181.5435,130.474344 C173.063,130.900124 166.6995,135.138444 166.2735,135.564144 C162.879,137.685244 162.0313,142.349344 164.1524,146.166144 C166.2735,149.560644 170.9376,150.408344 174.7544,148.287244 C174.7544,148.287244 178.5708,145.744244 182.813,145.744244 C187.0552,145.318464 191.2935,147.439544 191.2935,147.439544 C192.5669,147.865324 193.8365,148.287204 195.1099,148.287204 C197.6529,148.287204 200.1997,146.591904 201.4732,144.045004 C202.7466,139.802804 201.477106,135.138804 197.6607,133.443004 L197.6605,133.443144 Z" id="Path" fill="#D0021B"></path>
            </g>
        </g>
    </g>
</svg>