<svg width="76" height="76" viewBox="0 0 76 76" fill="none" xmlns="http://www.w3.org/2000/svg">
<path fill-rule="evenodd" clip-rule="evenodd" d="M11.13 11.1299C18.2563 4.00354 27.9218 0 38 0C48.0783 0 57.7438 4.00354 64.8701 11.1299C71.9965 18.2563 76 27.9218 76 38.0001C76 48.0783 71.9965 57.7438 64.8701 64.8702C57.7437 71.9966 48.0783 76.0001 38 76.0001C27.9218 76.0001 18.2564 71.9966 11.13 64.8702C4.00357 57.7438 0 48.0784 0 38.0001C0 27.9218 4.00357 18.2563 11.13 11.1299ZM38 6C29.5131 6 21.3738 9.3714 15.3726 15.3726C9.37143 21.3737 6 29.5131 6 38.0001C6 46.4871 9.37143 54.6264 15.3726 60.6276C21.3737 66.6287 29.5131 70.0001 38 70.0001C46.487 70.0001 54.6264 66.6287 60.6275 60.6276C66.6286 54.6264 70 46.4871 70 38.0001C70 29.5131 66.6286 21.3737 60.6275 15.3726C54.6263 9.37141 46.487 6 38 6Z" fill="#404040"/>
<path d="M37.9999 53C37.2095 53 36.435 53.2346 35.7774 53.6741C35.1198 54.1136 34.6078 54.7384 34.3038 55.4693C34.0014 56.2002 33.923 57.0045 34.0766 57.7803C34.2318 58.5563 34.6126 59.269 35.171 59.8285C35.731 60.3878 36.443 60.7688 37.2191 60.9232C37.9951 61.0774 38.7999 60.9982 39.5311 60.6955C40.2624 60.3928 40.8864 59.88 41.3264 59.2222C41.7664 58.5645 42 57.7912 42 57C42 55.9392 41.5792 54.9218 40.8288 54.1715C40.0783 53.4214 39.0607 53 37.9999 53Z" fill="#404040"/>
<path fill-rule="evenodd" clip-rule="evenodd" d="M32.3346 25.3154C31.3557 26.6751 31 28.3967 31 29.5C31 31.1569 29.6569 32.5 28 32.5C26.3431 32.5 25 31.1569 25 29.5C25 27.4366 25.5943 24.4083 27.4654 21.8096C29.4466 19.0579 32.7222 17 37.5 17C42.1379 17 45.4432 18.7641 47.4946 21.4821C49.4372 24.0561 50 27.1433 50 29.5C50 31.775 49.3352 36.734 44.6982 40.0461C43.9346 40.5916 43.2051 41.039 42.635 41.3887C42.5159 41.4618 42.4037 41.5307 42.2995 41.5952C41.6389 42.005 41.3118 42.239 41.0928 42.4528C41.089 42.4565 41.0851 42.4603 41.0811 42.4641C40.896 42.6439 40.5 43.0284 40.5 45C40.5 46.6569 39.1569 48 37.5 48C35.8431 48 34.5 46.6569 34.5 45C34.5 42.0139 35.1739 39.8459 36.9016 38.1594C37.6361 37.4423 38.4677 36.9115 39.1372 36.4962C39.279 36.4083 39.417 36.3235 39.5525 36.2402C40.1135 35.8956 40.6335 35.576 41.2108 35.1637C43.5739 33.4758 44 30.8917 44 29.5C44 27.9616 43.6128 26.2987 42.7054 25.0966C41.9068 24.0384 40.4621 23 37.5 23C34.6778 23 33.2034 24.1087 32.3346 25.3154Z" fill="#404040"/>
</svg>
