<?xml version="1.0" encoding="UTF-8"?>
<svg width="560px" height="241px" viewBox="0 0 560 241" version="1.1" xmlns="http://www.w3.org/2000/svg" xmlns:xlink="http://www.w3.org/1999/xlink">
    <title>noun-other-3264334</title>
    <g id="Page-1" stroke="none" stroke-width="1" fill="none" fill-rule="evenodd">
        <g id="Artboard" transform="translate(-3728.000000, -894.000000)" fill-rule="nonzero">
            <g id="noun-other-3264334" transform="translate(3728.000000, 894.000000)">
                <path d="M120.28,0 C53.932,0 0,54.027 0,120.38 C0,186.732 53.93,240.66 120.28,240.66 L439.62,240.66 C505.972,240.66 560,186.73 560,120.38 C560,54.028 505.969,0 439.62,0 L120.28,0 Z M120.28,35 L439.62,35 C487.186,35 524.999,72.816 524.999,120.379 C524.999,167.945 487.183,205.656 439.62,205.656 L120.28,205.656 C72.714,205.656 35.003,167.945 35.003,120.379 C35.003,72.813 72.714,35 120.28,35 Z" id="Shape" fill="#009FDF"></path>
                <path d="M139.249,66 C107.038,66 80.597,92.578 80.597,124.789 C80.597,157 107.038,183.441 139.249,183.441 C171.46,183.441 198.038,157 198.038,124.789 C198.038,92.578 171.46,66 139.249,66 L139.249,66 Z" id="Path" fill="#D0021B"></path>
                <path d="M279.929,66 C247.718,66 221.277,92.578 221.277,124.789 C221.277,157 247.718,183.441 279.929,183.441 C312.14,183.441 338.581,157 338.581,124.789 C338.581,92.578 312.14,66 279.929,66 L279.929,66 Z" id="Path" fill="#D0021B"></path>
                <path d="M420.609,66 C388.398,66 361.82,92.578 361.82,124.789 C361.82,157 388.398,183.441 420.609,183.441 C452.82,183.441 479.261,157 479.261,124.789 C479.261,92.578 452.82,66 420.609,66 L420.609,66 Z" id="Path" fill="#D0021B"></path>
                <path d="M139.239,101 C152.532,101 163.028,111.496 163.028,124.789 C163.028,138.082 152.532,148.441 139.239,148.441 C125.946,148.441 115.622,138.082 115.622,124.789 C115.622,111.496 125.946,101 139.239,101 Z" id="Path" fill="#FFFFFF"></path>
                <path d="M279.919,101 C293.212,101 303.571,111.496 303.571,124.789 C303.571,138.082 293.212,148.441 279.919,148.441 C266.626,148.441 256.267,138.082 256.267,124.789 C256.267,111.496 266.626,101 279.919,101 Z" id="Path" fill="#FFFFFF"></path>
                <path d="M420.599,101 C433.892,101 444.251,111.496 444.251,124.789 C444.251,138.082 433.892,148.441 420.599,148.441 C407.306,148.441 396.845,138.082 396.845,124.789 C396.845,111.496 407.306,101 420.599,101 Z" id="Path" fill="#FFFFFF"></path>
            </g>
        </g>
    </g>
</svg>