<?xml version="1.0" encoding="UTF-8"?>
<svg width="404px" height="508px" viewBox="0 0 404 508" version="1.1" xmlns="http://www.w3.org/2000/svg" xmlns:xlink="http://www.w3.org/1999/xlink">
    <title>noun-grave-1807161</title>
    <g id="Page-1" stroke="none" stroke-width="1" fill="none" fill-rule="evenodd">
        <g id="Artboard" transform="translate(-3881.000000, -228.000000)" fill-rule="nonzero">
            <g id="noun-grave-1807161" transform="translate(3881.577000, 228.000000)">
                <path d="M393.752,437.50325 L362.865,437.50325 L362.865,161.61325 C362.865,103.87525 332.06,50.52325 282.056,21.65325 C232.056,-7.21775 170.446,-7.21775 120.446,21.65325 C70.442,50.52025 39.637,103.87625 39.637,161.61325 L39.637,437.50325 L8.75,437.50325 C3.918,437.50325 0,441.42125 0,446.25325 L0,498.75325 C0,501.07355 0.92188,503.30015 2.5625,504.94075 C4.20312,506.58135 6.4297,507.50325 8.75,507.50325 L393.75,507.50325 C396.0703,507.50325 398.2969,506.58137 399.9375,504.94075 C401.5781,503.30013 402.5,501.07355 402.5,498.75325 L402.5,446.25325 C402.5,443.93295 401.57812,441.70635 399.9375,440.06575 C398.29688,438.42515 396.0703,437.50325 393.75,437.50325 L393.752,437.50325 Z M57.14,161.61325 C57.14,110.12525 84.611,62.55125 129.201,36.81325 C173.787,11.06725 228.724,11.06725 273.311,36.81325 C317.901,62.55525 345.37,110.12925 345.37,161.61325 L345.37,437.50325 L57.14,437.50325 L57.14,161.61325 Z M385.002,490.00325 L17.502,490.00325 L17.502,455.00325 L385.002,455.00325 L385.002,490.00325 Z" id="Shape" fill="#009FDF"></path>
                <path d="M288.752,134.84325 L113.752,134.84325 C108.92,134.84325 105.002,138.76125 105.002,143.59325 L105.002,231.09325 C105.002,233.41355 105.92388,235.64015 107.5645,237.28075 C109.2051,238.92135 111.4317,239.84325 113.752,239.84325 L288.752,239.84325 C291.0723,239.84325 293.2989,238.92137 294.9395,237.28075 C296.5801,235.64015 297.502,233.41355 297.502,231.09325 L297.502,143.59325 C297.502,141.27295 296.58012,139.05025 294.9395,137.40575 C293.2989,135.76515 291.0723,134.84325 288.752,134.84325 L288.752,134.84325 Z M280.002,222.34325 L122.502,222.34325 L122.502,152.34325 L280.002,152.34325 L280.002,222.34325 Z" id="Shape" fill="#D0021B"></path>
            </g>
        </g>
    </g>
</svg>