<?xml version="1.0" encoding="UTF-8"?>
<svg width="389px" height="517px" viewBox="0 0 389 517" version="1.1" xmlns="http://www.w3.org/2000/svg" xmlns:xlink="http://www.w3.org/1999/xlink">
    <title>noun-certificate-1059830</title>
    <g id="Page-1" stroke="none" stroke-width="1" fill="none" fill-rule="evenodd">
        <g id="Artboard" transform="translate(-3216.000000, -1279.000000)" fill-rule="nonzero">
            <g id="noun-certificate-1059830" transform="translate(3216.425172, 1279.000000)">
                <path d="M355.427628,516.970225 L32.347628,516.970225 C14.038628,516.970225 0.0386280028,502.965225 0.0386280028,484.656225 L0.0386280028,103.426225 L103.428628,0.0462249123 L355.428628,0.0462249123 C373.737628,0.0462249123 387.737628,14.0462249 387.737628,32.3552249 L387.737628,484.665225 C387.737628,502.970225 373.737628,516.970225 355.428628,516.970225 L355.427628,516.970225 Z M21.577628,112.045225 L21.577628,484.655225 C21.577628,491.116125 25.886228,495.425225 32.347628,495.425225 L355.427628,495.425225 C361.888528,495.425225 366.197628,491.116625 366.197628,484.655225 L366.197628,32.3552249 C366.197628,25.8943249 361.889028,21.5852249 355.427628,21.5852249 L112.037628,21.5852249 L21.577628,112.045225 Z" id="Shape" fill="#009FDF"></path>
                <path d="M107.737628,118.505425 L10.811628,118.505425 C6.503028,118.505425 2.194428,116.352925 1.120228,112.044325 C-1.032072,107.735725 0.0421280028,103.427125 3.272528,100.196325 L100.194528,3.27432491 C103.428928,0.0438249123 107.737528,-1.03427509 112.042528,1.12202491 C116.351128,2.19622491 118.507328,6.50482491 118.507328,10.8134249 L118.507328,107.735425 C118.507328,114.196325 114.198728,118.505425 107.737328,118.505425 L107.737628,118.505425 Z M36.659628,96.9662249 L96.968628,96.9662249 L96.968628,36.6572249 L36.659628,96.9662249 Z" id="Shape" fill="#009FDF"></path>
                <path d="M193.887628,387.735225 C189.579028,387.735225 186.348528,385.582925 183.117628,383.426625 L166.965628,366.196625 L143.270628,366.196625 C138.962028,366.196625 135.731528,365.118525 132.500628,361.888025 C129.270128,358.657525 128.192028,355.427125 128.192028,351.118025 L129.270128,327.427025 L112.040128,312.353025 C108.809628,309.122525 107.731528,305.892125 107.731528,301.583025 C107.731528,297.273925 109.883828,294.043925 112.040128,290.813025 L129.270128,274.661025 L129.270128,250.966025 C129.270128,246.657425 130.348228,243.426925 133.578728,240.196025 C136.809228,236.965525 140.039628,235.887425 144.348728,235.887425 L168.039728,236.965525 L184.191728,219.735525 C187.422228,216.505025 190.652628,215.426925 194.961728,215.426925 C199.270328,215.426925 202.500828,217.579225 205.731728,219.735525 L221.883728,236.965525 L245.574728,235.887425 C249.883328,235.887425 253.113828,236.965525 256.344728,240.196025 C259.575228,243.426525 260.653328,246.656925 260.653328,250.966025 L258.504928,274.657025 L275.734928,290.809025 C278.965428,294.039525 280.043528,297.269925 280.043528,301.579025 C280.043528,305.887625 277.891228,309.118125 275.734928,312.349025 L258.504928,328.505025 L259.583028,352.196025 C259.583028,356.504625 258.504928,359.735125 255.274428,362.966025 C252.043928,366.196525 248.813528,367.274625 244.504428,367.274625 L220.809428,366.196525 L204.657428,383.426525 C201.426928,385.582725 198.196528,387.735225 193.887428,387.735225 L193.887628,387.735225 Z M173.426828,343.582225 L178.809628,345.734525 L193.887628,361.886525 L208.965628,345.734525 L214.348428,343.582225 L236.965428,344.656425 L235.887328,322.039425 L238.039628,316.656625 L254.191628,301.578625 L238.039628,286.500625 L235.887328,281.117825 L236.965428,258.504825 L214.348428,259.582925 L208.965628,257.430625 L193.887628,240.196625 L178.809628,256.348625 L173.426828,258.500925 L150.809828,258.504831 L151.887928,281.121831 L149.735628,286.504631 L132.505628,301.582631 L148.657628,316.660631 L150.809928,322.043431 L150.809928,344.656431 L173.426828,343.582225 Z" id="Shape" fill="#D0021B"></path>
                <path d="M226.197628,463.125225 C224.045328,463.125225 221.889028,462.047125 219.736728,460.972925 L193.888728,443.738925 L168.040728,460.968925 C164.810228,463.121225 160.501628,463.121225 157.270728,460.968925 C152.966028,459.890825 150.809828,456.660325 150.809828,452.355625 L150.809828,355.433625 C150.809828,348.972725 155.118428,344.663625 161.579828,344.663625 L172.349828,344.663625 C175.580328,344.663625 177.732628,345.741725 179.888928,347.894125 L193.888928,362.972125 L207.888928,347.894125 C210.041228,345.741825 213.271728,344.663625 215.428028,344.663625 L226.198028,344.663625 C232.658928,344.663625 236.968028,348.972225 236.968028,355.433625 L236.968028,452.355625 C236.968028,456.664225 234.815728,459.894725 231.585228,462.047025 C229.429028,463.125225 228.350828,463.125225 226.198528,463.125225 L226.197628,463.125225 Z M193.888628,420.047225 C196.040928,420.047225 198.197228,421.125325 200.349528,422.199525 L215.427528,432.969525 L215.427528,371.586525 L204.657528,383.434525 C201.427028,386.665025 198.196628,387.743125 193.887528,387.743125 C189.578428,387.743125 186.348428,385.590825 183.117528,383.434525 L172.347528,371.586525 L172.347528,432.969525 L187.425528,422.199525 C189.577828,421.125325 191.734128,420.047225 193.886428,420.047225 L193.888628,420.047225 Z" id="Shape" fill="#D0021B"></path>
                <path d="M312.347628,118.505225 L172.347628,118.505225 C165.886728,118.505225 161.577628,114.196625 161.577628,107.735225 C161.577628,101.274325 165.886228,96.9652249 172.347628,96.9652249 L312.347628,96.9652249 C318.808528,96.9652249 323.117628,101.273825 323.117628,107.735225 C323.117628,114.196125 318.809028,118.505225 312.347628,118.505225 Z" id="Path" fill="#009FDF"></path>
                <path d="M301.577628,183.125225 L86.197628,183.125225 C79.736728,183.125225 75.427628,178.816625 75.427628,172.355225 C75.427628,165.894325 79.736228,161.585225 86.197628,161.585225 L301.577628,161.585225 C308.038528,161.585225 312.347628,165.893825 312.347628,172.355225 C312.347628,178.816125 308.039028,183.125225 301.577628,183.125225 Z" id="Path" fill="#009FDF"></path>
            </g>
        </g>
    </g>
</svg>