<?xml version="1.0" encoding="UTF-8"?>
<svg width="366px" height="517px" viewBox="0 0 366 517" version="1.1" xmlns="http://www.w3.org/2000/svg" xmlns:xlink="http://www.w3.org/1999/xlink">
    <title>Group</title>
    <g id="Page-1" stroke="none" stroke-width="1" fill="none" fill-rule="evenodd">
        <g id="Artboard" transform="translate(-2807.000000, -1279.000000)" fill-rule="nonzero">
            <g id="Group" transform="translate(2807.000000, 1279.000000)">
                <path d="M322.941176,517 L43.0588235,517 C19.3764706,517 0,497.6125 0,473.916667 L0,43.0833333 C0,19.3875 19.3764706,0 43.0588235,0 L284.188235,0 L366,80.78125 L366,473.916667 C366,497.6125 346.623529,517 322.941176,517 Z M43.0588235,21.5416667 C31.2176471,21.5416667 21.5294118,31.2354167 21.5294118,43.0833333 L21.5294118,473.916667 C21.5294118,485.764583 31.2176471,495.458333 43.0588235,495.458333 L322.941176,495.458333 C334.782353,495.458333 344.470588,485.764583 344.470588,473.916667 L344.470588,89.3979167 L274.5,21.5416667 L43.0588235,21.5416667 Z" id="Shape" fill="#009FDF"></path>
                <path d="M355.183422,97 L279.772928,97 C273.309171,97 269,92.6908289 269,86.2270722 L269,10.8165779 C269,6.50740679 271.154586,2.19823568 275.463757,1.12094291 C279.772928,-1.03364265 284.082099,0.043650131 287.313977,3.27552846 L362.724472,78.6860228 C365.95635,81.9179011 367.033643,86.2270722 364.879057,90.5362433 C362.724472,94.8454144 359.492593,97 355.183422,97 Z M290.545856,75.4541445 L329.328395,75.4541445 L290.545856,36.6716045 L290.545856,75.4541445 Z" id="Shape" fill="#009FDF"></path>
                <path d="M183,194 C159.35,194 140,174.65 140,151 C140,127.35 159.35,108 183,108 C206.65,108 226,127.35 226,151 C226,174.65 206.65,194 183,194 Z M183,129.5 C171.175,129.5 161.5,139.175 161.5,151 C161.5,162.825 171.175,172.5 183,172.5 C194.825,172.5 204.5,162.825 204.5,151 C204.5,139.175 194.825,129.5 183,129.5 Z" id="Shape" fill="#D0021B"></path>
                <path d="M259.1875,270 L107.8125,270 C101.325,270 97,265.688889 97,259.222222 C97,211.8 135.925,173 183.5,173 C231.075,173 270,211.8 270,259.222222 C270,265.688889 265.675,270 259.1875,270 Z M119.70625,248.444444 L247.29375,248.444444 C241.8875,218.266667 215.9375,194.555556 183.5,194.555556 C151.0625,194.555556 125.1125,218.266667 119.70625,248.444444 Z" id="Shape" fill="#D0021B"></path>
                <path d="M291.227273,463 L75.7727273,463 C69.3090909,463 65,458.8 65,452.5 C65,446.2 69.3090909,442 75.7727273,442 L291.227273,442 C297.690909,442 302,446.2 302,452.5 C302,458.8 297.690909,463 291.227273,463 Z" id="Path" fill="#009FDF"></path>
                <path d="M291.227273,398 L75.7727273,398 C69.3090909,398 65,393.8 65,387.5 C65,381.2 69.3090909,377 75.7727273,377 L291.227273,377 C297.690909,377 302,381.2 302,387.5 C302,393.8 297.690909,398 291.227273,398 Z" id="Path" fill="#009FDF"></path>
                <path d="M237.25,334 L129.75,334 C123.3,334 119,329.8 119,323.5 C119,317.2 123.3,313 129.75,313 L237.25,313 C243.7,313 248,317.2 248,323.5 C248,329.8 243.7,334 237.25,334 Z" id="Path" fill="#009FDF"></path>
            </g>
        </g>
    </g>
</svg>