<svg width="72" height="72" viewBox="0 0 72 72" fill="none" xmlns="http://www.w3.org/2000/svg">
<path fill-rule="evenodd" clip-rule="evenodd" d="M36 26.1054C37.6569 26.1054 39 27.4486 39 29.1054V45C39 46.6569 37.6569 48 36 48C34.3431 48 33 46.6569 33 45V29.1054C33 27.4486 34.3431 26.1054 36 26.1054Z" fill="#404040"/>
<path d="M35.9999 53C35.2095 53 34.435 53.2346 33.7774 53.6741C33.1198 54.1136 32.6078 54.7384 32.3038 55.4693C32.0014 56.2002 31.923 57.0045 32.0766 57.7803C32.2318 58.5563 32.6126 59.269 33.171 59.8285C33.731 60.3878 34.443 60.7688 35.2191 60.9232C35.9951 61.0774 36.7999 60.9982 37.5311 60.6955C38.2624 60.3928 38.8864 59.88 39.3264 59.2222C39.7664 58.5645 40 57.7912 40 57C40 55.9392 39.5792 54.9218 38.8288 54.1715C38.0783 53.4214 37.0607 53 35.9999 53Z" fill="#404040"/>
<path fill-rule="evenodd" clip-rule="evenodd" d="M36.0092 1.40626e-05C37.1455 0.00348377 38.1823 0.648665 38.6874 1.66657L71.1874 67.1666C71.6488 68.0965 71.5966 69.1989 71.0495 70.0811C70.5024 70.9633 69.5381 71.5 68.5 71.5H3C1.95864 71.5 0.991774 70.96 0.445649 70.0733C-0.100475 69.1866 -0.147724 68.0802 0.320824 67.1502L33.3208 1.65018C33.8321 0.635382 34.8728 -0.00345564 36.0092 1.40626e-05ZM7.87069 65.5H63.6625L35.9795 9.70824L7.87069 65.5Z" fill="#404040"/>
</svg>
